Primae-Asc Bold.ufo
<glyph name="exclam" format="2">
	<unicode hex="0021"/>
	<advance width="591"/>
	<outline>
		<contour>
			<point x="326" y="480" type="curve" smooth="yes"/>
			<point x="409" y="480"/>
			<point x="438" y="499"/>
			<point x="443" y="565" type="curve" smooth="yes"/>
			<point x="497" y="1259" type="line" smooth="yes"/>
			<point x="501" y="1305"/>
			<point x="501" y="1320"/>
			<point x="501" y="1337" type="curve" smooth="yes"/>
			<point x="501" y="1383"/>
			<point x="468" y="1400"/>
			<point x="391" y="1400" type="curve" smooth="yes"/>
			<point x="335" y="1400"/>
			<point x="289" y="1391"/>
			<point x="284" y="1319" type="curve" smooth="yes"/>
			<point x="236" y="614" type="line" smooth="yes"/>
			<point x="234" y="587"/>
			<point x="233" y="575"/>
			<point x="233" y="550" type="curve" smooth="yes"/>
			<point x="233" y="519"/>
			<point x="240" y="480"/>
		</contour>
		<contour>
			<point x="288" y="-12" type="curve" smooth="yes"/>
			<point x="373" y="-12"/>
			<point x="449" y="58"/>
			<point x="449" y="152" type="curve" smooth="yes"/>
			<point x="449" y="243"/>
			<point x="395" y="302"/>
			<point x="310" y="302" type="curve" smooth="yes"/>
			<point x="225" y="302"/>
			<point x="150" y="231"/>
			<point x="150" y="136" type="curve" smooth="yes"/>
			<point x="150" y="47"/>
			<point x="203" y="-12"/>
		</contour>
	</outline>
</glyph>
<glyph name="dollar" format="2">
	<unicode hex="0024"/>
	<advance width="1200"/>
	<outline>
		<contour>
			<point x="537" y="-12" type="curve" smooth="yes"/>
			<point x="852" y="-12"/>
			<point x="1075" y="184"/>
			<point x="1075" y="453" type="curve" smooth="yes"/>
			<point x="1075" y="662"/>
			<point x="955" y="808"/>
			<point x="694" y="910" type="curve"/>
			<point x="565" y="947" type="line"/>
			<point x="443" y="1001"/>
			<point x="392" y="1069"/>
			<point x="392" y="1173" type="curve" smooth="yes"/>
			<point x="392" y="1305"/>
			<point x="515" y="1395"/>
			<point x="672" y="1395" type="curve" smooth="yes"/>
			<point x="746" y="1395"/>
			<point x="827" y="1379"/>
			<point x="915" y="1346" type="curve" smooth="yes"/>
			<point x="939" y="1337"/>
			<point x="962" y="1328"/>
			<point x="983" y="1328" type="curve" smooth="yes"/>
			<point x="1027" y="1328"/>
			<point x="1069" y="1392"/>
			<point x="1069" y="1450" type="curve" smooth="yes"/>
			<point x="1069" y="1488"/>
			<point x="1043" y="1515"/>
			<point x="983" y="1548" type="curve" smooth="yes"/>
			<point x="894" y="1596"/>
			<point x="783" y="1625"/>
			<point x="673" y="1625" type="curve" smooth="yes"/>
			<point x="381" y="1625"/>
			<point x="152" y="1436"/>
			<point x="152" y="1157" type="curve" smooth="yes"/>
			<point x="152" y="952"/>
			<point x="270" y="798"/>
			<point x="518" y="684" type="curve"/>
			<point x="659" y="652" type="line"/>
			<point x="781" y="607"/>
			<point x="835" y="541"/>
			<point x="835" y="438" type="curve" smooth="yes"/>
			<point x="835" y="313"/>
			<point x="742" y="218"/>
			<point x="565" y="218" type="curve" smooth="yes"/>
			<point x="434" y="218"/>
			<point x="328" y="247"/>
			<point x="217" y="290" type="curve" smooth="yes"/>
			<point x="196" y="298"/>
			<point x="179" y="304"/>
			<point x="163" y="304" type="curve" smooth="yes"/>
			<point x="113" y="304"/>
			<point x="71" y="245"/>
			<point x="71" y="170" type="curve" smooth="yes"/>
			<point x="71" y="137"/>
			<point x="91" y="113"/>
			<point x="139" y="87" type="curve" smooth="yes"/>
			<point x="226" y="39"/>
			<point x="389" y="-12"/>
		</contour>
		<contour>
			<point x="528" y="-212" type="curve" smooth="yes"/>
			<point x="583" y="-212"/>
			<point x="606" y="-197"/>
			<point x="612" y="-143" type="curve" smooth="yes"/>
			<point x="809" y="1711" type="line" smooth="yes"/>
			<point x="812" y="1738"/>
			<point x="813" y="1750"/>
			<point x="813" y="1761" type="curve" smooth="yes"/>
			<point x="812" y="1787"/>
			<point x="766" y="1809"/>
			<point x="698" y="1809" type="curve" smooth="yes"/>
			<point x="643" y="1809"/>
			<point x="620" y="1794"/>
			<point x="613" y="1731" type="curve" smooth="yes"/>
			<point x="417" y="-94" type="line" smooth="yes"/>
			<point x="416" y="-106"/>
			<point x="413" y="-128"/>
			<point x="413" y="-153" type="curve" smooth="yes"/>
			<point x="413" y="-185"/>
			<point x="460" y="-212"/>
		</contour>
	</outline>
</glyph>
<glyph name="ampersand" format="2">
	<unicode hex="0026"/>
	<advance width="1532"/>
	<outline>
		<contour>
			<point x="1281" y="-55" type="curve" smooth="yes"/>
			<point x="1356" y="-55"/>
			<point x="1422" y="21"/>
			<point x="1422" y="81" type="curve" smooth="yes"/>
			<point x="1422" y="103"/>
			<point x="1413" y="122"/>
			<point x="1391" y="147" type="curve" smooth="yes"/>
			<point x="731" y="899" type="line" smooth="yes"/>
			<point x="580" y="1071"/>
			<point x="543" y="1126"/>
			<point x="543" y="1222" type="curve" smooth="yes"/>
			<point x="543" y="1358"/>
			<point x="639" y="1409"/>
			<point x="726" y="1409" type="curve" smooth="yes"/>
			<point x="829" y="1409"/>
			<point x="904" y="1336"/>
			<point x="904" y="1233" type="curve" smooth="yes"/>
			<point x="904" y="1084"/>
			<point x="755" y="1006"/>
			<point x="584" y="905" type="curve" smooth="yes"/>
			<point x="413" y="803"/>
			<point x="170" y="664"/>
			<point x="170" y="383" type="curve" smooth="yes"/>
			<point x="170" y="148"/>
			<point x="335" y="-23"/>
			<point x="639" y="-23" type="curve" smooth="yes"/>
			<point x="881" y="-23"/>
			<point x="1097" y="114"/>
			<point x="1323" y="441" type="curve" smooth="yes"/>
			<point x="1354" y="486"/>
			<point x="1360" y="498"/>
			<point x="1360" y="519" type="curve" smooth="yes"/>
			<point x="1360" y="582"/>
			<point x="1305" y="628"/>
			<point x="1245" y="628" type="curve" smooth="yes"/>
			<point x="1211" y="628"/>
			<point x="1198" y="613"/>
			<point x="1166" y="574" type="curve" smooth="yes"/>
			<point x="1031" y="406"/>
			<point x="868" y="191"/>
			<point x="645" y="191" type="curve" smooth="yes"/>
			<point x="532" y="192"/>
			<point x="401" y="244"/>
			<point x="401" y="398" type="curve" smooth="yes"/>
			<point x="401" y="561"/>
			<point x="546" y="648"/>
			<point x="695" y="738" type="curve" smooth="yes"/>
			<point x="927" y="878"/>
			<point x="1136" y="999"/>
			<point x="1136" y="1254" type="curve" smooth="yes"/>
			<point x="1136" y="1474"/>
			<point x="980" y="1625"/>
			<point x="736" y="1625" type="curve" smooth="yes"/>
			<point x="472" y="1625"/>
			<point x="309" y="1449"/>
			<point x="309" y="1215" type="curve" smooth="yes"/>
			<point x="309" y="1074"/>
			<point x="358" y="956"/>
			<point x="557" y="729" type="curve" smooth="yes"/>
			<point x="1202" y="-7" type="line" smooth="yes"/>
			<point x="1231" y="-40"/>
			<point x="1248" y="-55"/>
		</contour>
	</outline>
</glyph>
<glyph name="hyphen" format="2">
	<unicode hex="002D"/>
	<advance width="925"/>
	<outline>
		<contour>
			<point x="200" y="560" type="curve" smooth="yes"/>
			<point x="703" y="560" type="line" smooth="yes"/>
			<point x="773" y="560"/>
			<point x="815" y="600"/>
			<point x="815" y="670" type="curve" smooth="yes"/>
			<point x="815" y="740"/>
			<point x="780" y="778"/>
			<point x="725" y="778" type="curve" smooth="yes"/>
			<point x="216" y="778" type="line" smooth="yes"/>
			<point x="146" y="778"/>
			<point x="110" y="743"/>
			<point x="110" y="663" type="curve" smooth="yes"/>
			<point x="110" y="593"/>
			<point x="145" y="560"/>
		</contour>
	</outline>
</glyph>
<glyph name="period" format="2">
	<unicode hex="002E"/>
	<advance width="615"/>
	<outline>
		<contour>
			<point x="295" y="-12" type="curve" smooth="yes"/>
			<point x="385" y="-12"/>
			<point x="465" y="62"/>
			<point x="465" y="161" type="curve" smooth="yes"/>
			<point x="465" y="256"/>
			<point x="408" y="318"/>
			<point x="319" y="318" type="curve" smooth="yes"/>
			<point x="229" y="318"/>
			<point x="150" y="244"/>
			<point x="150" y="144" type="curve" smooth="yes"/>
			<point x="150" y="50"/>
			<point x="206" y="-12"/>
		</contour>
	</outline>
</glyph>
<glyph name="zero" format="2">
	<unicode hex="0030"/>
	<advance width="1233"/>
	<outline>
		<contour>
			<point x="564" y="-17" type="curve" smooth="yes"/>
			<point x="886" y="-17"/>
			<point x="1133" y="339"/>
			<point x="1133" y="922" type="curve" smooth="yes"/>
			<point x="1133" y="1392"/>
			<point x="939" y="1619"/>
			<point x="668" y="1619" type="curve" smooth="yes"/>
			<point x="346" y="1619"/>
			<point x="100" y="1263"/>
			<point x="100" y="681" type="curve" smooth="yes"/>
			<point x="100" y="210"/>
			<point x="293" y="-17"/>
		</contour>
		<contour>
			<point x="580" y="223" type="curve" smooth="yes"/>
			<point x="443" y="223"/>
			<point x="354" y="341"/>
			<point x="354" y="727" type="curve" smooth="yes"/>
			<point x="354" y="1132"/>
			<point x="489" y="1379"/>
			<point x="652" y="1379" type="curve" smooth="yes"/>
			<point x="788" y="1379"/>
			<point x="879" y="1260"/>
			<point x="879" y="876" type="curve" smooth="yes"/>
			<point x="879" y="469"/>
			<point x="742" y="223"/>
		</contour>
	</outline>
</glyph>
<glyph name="two" format="2">
	<unicode hex="0032"/>
	<advance width="1200"/>
	<outline>
		<contour>
			<point x="241" y="0" type="curve" smooth="yes"/>
			<point x="975" y="0" type="line" smooth="yes"/>
			<point x="1056" y="0"/>
			<point x="1080" y="61"/>
			<point x="1080" y="142" type="curve" smooth="yes"/>
			<point x="1080" y="196"/>
			<point x="1060" y="240"/>
			<point x="1003" y="240" type="curve" smooth="yes"/>
			<point x="216" y="240" type="line"/>
			<point x="243" y="160" type="line"/>
			<point x="880" y="645"/>
			<point x="1059" y="928"/>
			<point x="1059" y="1200" type="curve" smooth="yes"/>
			<point x="1059" y="1461"/>
			<point x="879" y="1613"/>
			<point x="655" y="1613" type="curve" smooth="yes"/>
			<point x="475" y="1613"/>
			<point x="319" y="1552"/>
			<point x="197" y="1437" type="curve" smooth="yes"/>
			<point x="145" y="1388"/>
			<point x="138" y="1360"/>
			<point x="138" y="1335" type="curve" smooth="yes"/>
			<point x="138" y="1285"/>
			<point x="188" y="1219"/>
			<point x="253" y="1219" type="curve" smooth="yes"/>
			<point x="274" y="1219"/>
			<point x="290" y="1224"/>
			<point x="337" y="1259" type="curve" smooth="yes"/>
			<point x="433" y="1330"/>
			<point x="516" y="1373"/>
			<point x="609" y="1373" type="curve" smooth="yes"/>
			<point x="729" y="1373"/>
			<point x="804" y="1301"/>
			<point x="804" y="1175" type="curve" smooth="yes"/>
			<point x="804" y="990"/>
			<point x="681" y="800"/>
			<point x="179" y="357" type="curve" smooth="yes"/>
			<point x="106" y="293"/>
			<point x="80" y="253"/>
			<point x="80" y="185" type="curve" smooth="yes"/>
			<point x="80" y="77"/>
			<point x="152" y="0"/>
		</contour>
	</outline>
</glyph>
<glyph name="four" format="2">
	<unicode hex="0034"/>
	<advance width="1236"/>
	<outline>
		<contour>
			<point x="254" y="444" type="curve" smooth="yes"/>
			<point x="299" y="444"/>
			<point x="633" y="449"/>
			<point x="841" y="451" type="curve" smooth="yes"/>
			<point x="980" y="452"/>
			<point x="1067" y="453"/>
			<point x="1089" y="453" type="curve" smooth="yes"/>
			<point x="1172" y="453"/>
			<point x="1196" y="501"/>
			<point x="1196" y="576" type="curve" smooth="yes"/>
			<point x="1196" y="647"/>
			<point x="1163" y="683"/>
			<point x="1109" y="683" type="curve" smooth="yes"/>
			<point x="1069" y="683"/>
			<point x="1010" y="681"/>
			<point x="947" y="678" type="curve" smooth="yes"/>
			<point x="230" y="645" type="line"/>
			<point x="254" y="575" type="line"/>
			<point x="410" y="856"/>
			<point x="568" y="1194"/>
			<point x="645" y="1402" type="curve" smooth="yes"/>
			<point x="675" y="1483"/>
			<point x="682" y="1503"/>
			<point x="682" y="1532" type="curve" smooth="yes"/>
			<point x="682" y="1585"/>
			<point x="610" y="1625"/>
			<point x="534" y="1625" type="curve" smooth="yes"/>
			<point x="473" y="1625"/>
			<point x="456" y="1606"/>
			<point x="427" y="1522" type="curve" smooth="yes"/>
			<point x="342" y="1273"/>
			<point x="223" y="962"/>
			<point x="123" y="744" type="curve" smooth="yes"/>
			<point x="91" y="674"/>
			<point x="80" y="644"/>
			<point x="80" y="608" type="curve" smooth="yes"/>
			<point x="80" y="504"/>
			<point x="181" y="444"/>
		</contour>
		<contour>
			<point x="826" y="62" type="curve" smooth="yes"/>
			<point x="844" y="342"/>
			<point x="865" y="661"/>
			<point x="885" y="914" type="curve" smooth="yes"/>
			<point x="890" y="977"/>
			<point x="891" y="995"/>
			<point x="891" y="1013" type="curve" smooth="yes"/>
			<point x="891" y="1061"/>
			<point x="853" y="1085"/>
			<point x="760" y="1085" type="curve" smooth="yes"/>
			<point x="696" y="1085"/>
			<point x="671" y="1067"/>
			<point x="662" y="977" type="curve" smooth="yes"/>
			<point x="646" y="820"/>
			<point x="611" y="290"/>
			<point x="602" y="144" type="curve" smooth="yes"/>
			<point x="599" y="103"/>
			<point x="598" y="84"/>
			<point x="598" y="65" type="curve" smooth="yes"/>
			<point x="598" y="0"/>
			<point x="647" y="-12"/>
			<point x="705" y="-12" type="curve" smooth="yes"/>
			<point x="774" y="-12"/>
			<point x="822" y="2"/>
		</contour>
	</outline>
</glyph>
<glyph name="seven" format="2">
	<unicode hex="0037"/>
	<advance width="1144"/>
	<outline>
		<contour>
			<point x="381" y="-12" type="curve" smooth="yes"/>
			<point x="435" y="-12"/>
			<point x="456" y="9"/>
			<point x="475" y="75" type="curve" smooth="yes"/>
			<point x="618" y="569"/>
			<point x="840" y="990"/>
			<point x="1044" y="1293" type="curve" smooth="yes"/>
			<point x="1118" y="1402"/>
			<point x="1124" y="1436"/>
			<point x="1124" y="1484" type="curve" smooth="yes"/>
			<point x="1124" y="1546"/>
			<point x="1065" y="1600"/>
			<point x="983" y="1600" type="curve" smooth="yes"/>
			<point x="208" y="1600" type="line" smooth="yes"/>
			<point x="137" y="1600"/>
			<point x="100" y="1542"/>
			<point x="100" y="1466" type="curve" smooth="yes"/>
			<point x="100" y="1395"/>
			<point x="131" y="1360"/>
			<point x="190" y="1360" type="curve" smooth="yes"/>
			<point x="904" y="1360" type="line"/>
			<point x="893" y="1381" type="line"/>
			<point x="622" y="1038"/>
			<point x="399" y="651"/>
			<point x="227" y="187" type="curve" smooth="yes"/>
			<point x="212" y="146"/>
			<point x="207" y="121"/>
			<point x="207" y="96" type="curve" smooth="yes"/>
			<point x="207" y="36"/>
			<point x="286" y="-12"/>
		</contour>
		<contour>
			<point x="256" y="715" type="curve" smooth="yes"/>
			<point x="872" y="715" type="line" smooth="yes"/>
			<point x="928" y="715"/>
			<point x="978" y="748"/>
			<point x="978" y="827" type="curve" smooth="yes"/>
			<point x="978" y="898"/>
			<point x="949" y="925"/>
			<point x="891" y="925" type="curve" smooth="yes"/>
			<point x="278" y="925" type="line" smooth="yes"/>
			<point x="225" y="925"/>
			<point x="180" y="901"/>
			<point x="180" y="804" type="curve" smooth="yes"/>
			<point x="180" y="749"/>
			<point x="205" y="715"/>
		</contour>
	</outline>
</glyph>
<glyph name="question" format="2">
	<unicode hex="003F"/>
	<advance width="1011"/>
	<outline>
		<contour>
			<point x="482" y="393" type="curve" smooth="yes"/>
			<point x="584" y="393"/>
			<point x="677" y="441"/>
			<point x="719" y="485" type="curve" smooth="yes"/>
			<point x="743" y="512"/>
			<point x="748" y="528"/>
			<point x="748" y="541" type="curve" smooth="yes"/>
			<point x="748" y="579"/>
			<point x="707" y="630"/>
			<point x="659" y="630" type="curve" smooth="yes"/>
			<point x="644" y="630"/>
			<point x="634" y="627"/>
			<point x="614" y="614" type="curve" smooth="yes"/>
			<point x="581" y="594"/>
			<point x="550" y="575"/>
			<point x="505" y="575" type="curve" smooth="yes"/>
			<point x="449" y="575"/>
			<point x="421" y="609"/>
			<point x="421" y="636" type="curve" smooth="yes"/>
			<point x="421" y="680"/>
			<point x="445" y="714"/>
			<point x="666" y="830" type="curve" smooth="yes"/>
			<point x="876" y="940"/>
			<point x="941" y="1034"/>
			<point x="941" y="1158" type="curve" smooth="yes"/>
			<point x="941" y="1303"/>
			<point x="822" y="1425"/>
			<point x="618" y="1425" type="curve" smooth="yes"/>
			<point x="492" y="1425"/>
			<point x="379" y="1394"/>
			<point x="272" y="1340" type="curve" smooth="yes"/>
			<point x="193" y="1296"/>
			<point x="170" y="1266"/>
			<point x="170" y="1232" type="curve" smooth="yes"/>
			<point x="170" y="1185"/>
			<point x="224" y="1124"/>
			<point x="261" y="1124" type="curve" smooth="yes"/>
			<point x="284" y="1124"/>
			<point x="294" y="1130"/>
			<point x="328" y="1146" type="curve" smooth="yes"/>
			<point x="439" y="1195"/>
			<point x="524" y="1216"/>
			<point x="603" y="1216" type="curve" smooth="yes"/>
			<point x="671" y="1216"/>
			<point x="711" y="1185"/>
			<point x="711" y="1145" type="curve" smooth="yes"/>
			<point x="711" y="1093"/>
			<point x="679" y="1067"/>
			<point x="471" y="958" type="curve" smooth="yes"/>
			<point x="272" y="854"/>
			<point x="211" y="754"/>
			<point x="211" y="644" type="curve" smooth="yes"/>
			<point x="211" y="509"/>
			<point x="310" y="393"/>
		</contour>
		<contour>
			<point x="429" y="-12" type="curve" smooth="yes"/>
			<point x="514" y="-12"/>
			<point x="590" y="58"/>
			<point x="590" y="152" type="curve" smooth="yes"/>
			<point x="590" y="243"/>
			<point x="536" y="302"/>
			<point x="451" y="302" type="curve" smooth="yes"/>
			<point x="366" y="302"/>
			<point x="291" y="231"/>
			<point x="291" y="136" type="curve" smooth="yes"/>
			<point x="291" y="47"/>
			<point x="344" y="-12"/>
		</contour>
	</outline>
</glyph>
<glyph name="C" format="2">
	<unicode hex="0043"/>
	<advance width="1213"/>
	<outline>
		<contour>
			<point x="642" y="-12" type="curve" smooth="yes"/>
			<point x="787" y="-12"/>
			<point x="941" y="40"/>
			<point x="1032" y="120" type="curve" smooth="yes"/>
			<point x="1121" y="198"/>
			<point x="1142" y="236"/>
			<point x="1142" y="278" type="curve" smooth="yes"/>
			<point x="1142" y="339"/>
			<point x="1068" y="397"/>
			<point x="1029" y="397" type="curve" smooth="yes"/>
			<point x="1007" y="397"/>
			<point x="993" y="391"/>
			<point x="960" y="364" type="curve" smooth="yes"/>
			<point x="867" y="286"/>
			<point x="767" y="238"/>
			<point x="652" y="238" type="curve" smooth="yes"/>
			<point x="463" y="238"/>
			<point x="350" y="358"/>
			<point x="350" y="703" type="curve" smooth="yes"/>
			<point x="350" y="1117"/>
			<point x="555" y="1375"/>
			<point x="780" y="1375" type="curve" smooth="yes"/>
			<point x="858" y="1375"/>
			<point x="929" y="1353"/>
			<point x="987" y="1319" type="curve" smooth="yes"/>
			<point x="1021" y="1299"/>
			<point x="1042" y="1287"/>
			<point x="1067" y="1287" type="curve" smooth="yes"/>
			<point x="1115" y="1287"/>
			<point x="1173" y="1361"/>
			<point x="1173" y="1422" type="curve" smooth="yes"/>
			<point x="1173" y="1453"/>
			<point x="1150" y="1495"/>
			<point x="1071" y="1544" type="curve" smooth="yes"/>
			<point x="982" y="1599"/>
			<point x="879" y="1625"/>
			<point x="775" y="1625" type="curve" smooth="yes"/>
			<point x="403" y="1625"/>
			<point x="90" y="1254"/>
			<point x="90" y="678" type="curve" smooth="yes"/>
			<point x="90" y="230"/>
			<point x="309" y="-12"/>
		</contour>
	</outline>
	<anchor name="bottom" x="633" y="0"/>
	<anchor name="top" x="767" y="1600"/>
</glyph>
<glyph name="G" format="2">
	<unicode hex="0047"/>
	<advance width="1351"/>
	<outline>
		<contour>
			<point x="565" y="-12" type="curve" smooth="yes"/>
			<point x="761" y="-12"/>
			<point x="914" y="118"/>
			<point x="989" y="327" type="curve"/>
			<point x="976" y="327" type="line"/>
			<point x="953" y="131" type="line" smooth="yes"/>
			<point x="949" y="96"/>
			<point x="947" y="77"/>
			<point x="947" y="59" type="curve" smooth="yes"/>
			<point x="947" y="12"/>
			<point x="978" y="-12"/>
			<point x="1054" y="-12" type="curve" smooth="yes"/>
			<point x="1147" y="-12"/>
			<point x="1177" y="2"/>
			<point x="1183" y="83" type="curve" smooth="yes"/>
			<point x="1228" y="738" type="line" smooth="yes"/>
			<point x="1230" y="761"/>
			<point x="1231" y="784"/>
			<point x="1231" y="797" type="curve" smooth="yes"/>
			<point x="1231" y="849"/>
			<point x="1201" y="870"/>
			<point x="1132" y="870" type="curve" smooth="yes"/>
			<point x="784" y="870" type="line" smooth="yes"/>
			<point x="726" y="870"/>
			<point x="692" y="825"/>
			<point x="692" y="735" type="curve" smooth="yes"/>
			<point x="692" y="665"/>
			<point x="720" y="630"/>
			<point x="766" y="630" type="curve" smooth="yes"/>
			<point x="995" y="630" type="line"/>
			<point x="950" y="405"/>
			<point x="823" y="238"/>
			<point x="622" y="238" type="curve" smooth="yes"/>
			<point x="468" y="238"/>
			<point x="350" y="374"/>
			<point x="350" y="720" type="curve" smooth="yes"/>
			<point x="350" y="1117"/>
			<point x="560" y="1375"/>
			<point x="790" y="1375" type="curve" smooth="yes"/>
			<point x="867" y="1375"/>
			<point x="934" y="1361"/>
			<point x="1004" y="1329" type="curve" smooth="yes"/>
			<point x="1063" y="1302"/>
			<point x="1085" y="1293"/>
			<point x="1107" y="1293" type="curve" smooth="yes"/>
			<point x="1157" y="1293"/>
			<point x="1212" y="1372"/>
			<point x="1212" y="1437" type="curve" smooth="yes"/>
			<point x="1212" y="1460"/>
			<point x="1193" y="1495"/>
			<point x="1115" y="1543" type="curve" smooth="yes"/>
			<point x="1034" y="1593"/>
			<point x="917" y="1625"/>
			<point x="805" y="1625" type="curve" smooth="yes"/>
			<point x="403" y="1625"/>
			<point x="90" y="1254"/>
			<point x="90" y="678" type="curve" smooth="yes"/>
			<point x="90" y="252"/>
			<point x="308" y="-12"/>
		</contour>
	</outline>
	<anchor name="bottom" x="607" y="-12"/>
	<anchor name="top" x="810" y="1600"/>
</glyph>
<glyph name="I" format="2">
	<unicode hex="0049"/>
	<advance width="510"/>
	<outline>
		<contour>
			<point x="199" y="-12" type="curve" smooth="yes"/>
			<point x="280" y="-12"/>
			<point x="326" y="6"/>
			<point x="330" y="66" type="curve" smooth="yes"/>
			<point x="427" y="1449" type="line" smooth="yes"/>
			<point x="430" y="1487"/>
			<point x="430" y="1499"/>
			<point x="430" y="1523" type="curve" smooth="yes"/>
			<point x="430" y="1583"/>
			<point x="395" y="1600"/>
			<point x="302" y="1600" type="curve" smooth="yes"/>
			<point x="219" y="1600"/>
			<point x="180" y="1572"/>
			<point x="175" y="1497" type="curve" smooth="yes"/>
			<point x="83" y="123" type="line" smooth="yes"/>
			<point x="81" y="99"/>
			<point x="80" y="82"/>
			<point x="80" y="71" type="curve" smooth="yes"/>
			<point x="80" y="7"/>
			<point x="107" y="-12"/>
		</contour>
	</outline>
	<anchor name="bottom" x="200" y="0"/>
	<anchor name="ogonek" x="258" y="0"/>
	<anchor name="top" x="310" y="1600"/>
	<anchor name="topleft" x="230" y="1600"/>
</glyph>
<glyph name="K" format="2">
	<unicode hex="004B"/>
	<advance width="1278"/>
	<outline>
		<contour>
			<point x="199" y="-12" type="curve" smooth="yes"/>
			<point x="279" y="-12"/>
			<point x="326" y="3"/>
			<point x="330" y="64" type="curve" smooth="yes"/>
			<point x="427" y="1451" type="line" smooth="yes"/>
			<point x="429" y="1480"/>
			<point x="430" y="1498"/>
			<point x="430" y="1523" type="curve" smooth="yes"/>
			<point x="430" y="1583"/>
			<point x="395" y="1600"/>
			<point x="302" y="1600" type="curve" smooth="yes"/>
			<point x="219" y="1600"/>
			<point x="180" y="1572"/>
			<point x="175" y="1497" type="curve" smooth="yes"/>
			<point x="83" y="123" type="line" smooth="yes"/>
			<point x="81" y="99"/>
			<point x="80" y="82"/>
			<point x="80" y="71" type="curve" smooth="yes"/>
			<point x="80" y="7"/>
			<point x="107" y="-12"/>
		</contour>
		<contour>
			<point x="1065" y="-12" type="curve" smooth="yes"/>
			<point x="1135" y="-12"/>
			<point x="1212" y="61"/>
			<point x="1212" y="131" type="curve" smooth="yes"/>
			<point x="1212" y="155"/>
			<point x="1204" y="173"/>
			<point x="1168" y="216" type="curve" smooth="yes"/>
			<point x="612" y="881" type="line"/>
			<point x="603" y="813" type="line"/>
			<point x="1198" y="1364" type="line" smooth="yes"/>
			<point x="1255" y="1417"/>
			<point x="1268" y="1434"/>
			<point x="1268" y="1471" type="curve" smooth="yes"/>
			<point x="1268" y="1536"/>
			<point x="1213" y="1600"/>
			<point x="1144" y="1600" type="curve" smooth="yes"/>
			<point x="1117" y="1600"/>
			<point x="1096" y="1590"/>
			<point x="1064" y="1559" type="curve" smooth="yes"/>
			<point x="510" y="1024" type="line" smooth="yes"/>
			<point x="426" y="943"/>
			<point x="408" y="901"/>
			<point x="408" y="839" type="curve" smooth="yes"/>
			<point x="408" y="769"/>
			<point x="427" y="727"/>
			<point x="513" y="620" type="curve" smooth="yes"/>
			<point x="969" y="53" type="line" smooth="yes"/>
			<point x="1013" y="-1"/>
			<point x="1035" y="-12"/>
		</contour>
	</outline>
	<anchor name="bottom" x="616" y="0"/>
	<anchor name="top" x="730" y="1600"/>
	<anchor name="topleft" x="229" y="1600"/>
</glyph>
<glyph name="P" format="2">
	<unicode hex="0050"/>
	<advance width="1174"/>
	<outline>
		<contour>
			<point x="205" y="-12" type="curve" smooth="yes"/>
			<point x="286" y="-12"/>
			<point x="326" y="5"/>
			<point x="330" y="66" type="curve" smooth="yes"/>
			<point x="421" y="1383" type="line"/>
			<point x="441" y="1386"/>
			<point x="502" y="1395"/>
			<point x="572" y="1395" type="curve" smooth="yes"/>
			<point x="765" y="1395"/>
			<point x="899" y="1288"/>
			<point x="899" y="1122" type="curve" smooth="yes"/>
			<point x="899" y="936"/>
			<point x="762" y="808"/>
			<point x="499" y="808" type="curve" smooth="yes"/>
			<point x="254" y="808" type="line"/>
			<point x="241" y="588" type="line"/>
			<point x="487" y="588" type="line" smooth="yes"/>
			<point x="901" y="588"/>
			<point x="1154" y="815"/>
			<point x="1154" y="1140" type="curve" smooth="yes"/>
			<point x="1154" y="1424"/>
			<point x="997" y="1625"/>
			<point x="589" y="1625" type="curve" smooth="yes"/>
			<point x="470" y="1625"/>
			<point x="368" y="1617"/>
			<point x="298" y="1603" type="curve" smooth="yes"/>
			<point x="215" y="1586"/>
			<point x="179" y="1545"/>
			<point x="173" y="1456" type="curve" smooth="yes"/>
			<point x="83" y="123" type="line" smooth="yes"/>
			<point x="81" y="99"/>
			<point x="80" y="82"/>
			<point x="80" y="71" type="curve" smooth="yes"/>
			<point x="80" y="7"/>
			<point x="113" y="-12"/>
		</contour>
	</outline>
	<anchor name="top" x="634" y="1600"/>
</glyph>
<glyph name="R" format="2">
	<unicode hex="0052"/>
	<advance width="1225"/>
	<outline>
		<contour>
			<point x="199" y="-12" type="curve" smooth="yes"/>
			<point x="280" y="-12"/>
			<point x="326" y="2"/>
			<point x="330" y="66" type="curve" smooth="yes"/>
			<point x="422" y="1383" type="line"/>
			<point x="456" y="1389"/>
			<point x="515" y="1395"/>
			<point x="557" y="1395" type="curve" smooth="yes"/>
			<point x="766" y="1395"/>
			<point x="885" y="1291"/>
			<point x="885" y="1142" type="curve" smooth="yes"/>
			<point x="885" y="967"/>
			<point x="751" y="848"/>
			<point x="520" y="848" type="curve" smooth="yes"/>
			<point x="255" y="848" type="line"/>
			<point x="242" y="638" type="line"/>
			<point x="508" y="638" type="line" smooth="yes"/>
			<point x="897" y="638"/>
			<point x="1135" y="853"/>
			<point x="1135" y="1160" type="curve" smooth="yes"/>
			<point x="1135" y="1432"/>
			<point x="949" y="1625"/>
			<point x="555" y="1625" type="curve" smooth="yes"/>
			<point x="474" y="1625"/>
			<point x="366" y="1617"/>
			<point x="299" y="1603" type="curve" smooth="yes"/>
			<point x="216" y="1586"/>
			<point x="180" y="1545"/>
			<point x="174" y="1456" type="curve" smooth="yes"/>
			<point x="83" y="123" type="line" smooth="yes"/>
			<point x="81" y="99"/>
			<point x="80" y="82"/>
			<point x="80" y="71" type="curve" smooth="yes"/>
			<point x="78" y="7"/>
			<point x="107" y="-12"/>
		</contour>
		<contour>
			<point x="963" y="-12" type="curve" smooth="yes"/>
			<point x="1023" y="-12"/>
			<point x="1117" y="74"/>
			<point x="1117" y="131" type="curve" smooth="yes"/>
			<point x="1117" y="152"/>
			<point x="1110" y="171"/>
			<point x="1081" y="203" type="curve" smooth="yes"/>
			<point x="758" y="564" type="line" smooth="yes"/>
			<point x="703" y="625"/>
			<point x="659" y="670"/>
			<point x="629" y="694" type="curve"/>
			<point x="379" y="652" type="line"/>
			<point x="885" y="35" type="line" smooth="yes"/>
			<point x="914" y="0"/>
			<point x="938" y="-12"/>
		</contour>
	</outline>
	<anchor name="bottom" x="570" y="0"/>
	<anchor name="top" x="628" y="1600"/>
</glyph>
<glyph name="T" format="2">
	<unicode hex="0054"/>
	<advance width="1115"/>
	<outline>
		<contour>
			<point x="496" y="-12" type="curve" smooth="yes"/>
			<point x="578" y="-12"/>
			<point x="624" y="2"/>
			<point x="628" y="66" type="curve" smooth="yes"/>
			<point x="717" y="1360" type="line"/>
			<point x="1032" y="1360" type="line" smooth="yes"/>
			<point x="1121" y="1360"/>
			<point x="1165" y="1400"/>
			<point x="1165" y="1500" type="curve" smooth="yes"/>
			<point x="1165" y="1568"/>
			<point x="1131" y="1600"/>
			<point x="1085" y="1600" type="curve" smooth="yes"/>
			<point x="172" y="1600" type="line" smooth="yes"/>
			<point x="88" y="1600"/>
			<point x="40" y="1560"/>
			<point x="40" y="1460" type="curve" smooth="yes"/>
			<point x="40" y="1388"/>
			<point x="72" y="1360"/>
			<point x="129" y="1360" type="curve" smooth="yes"/>
			<point x="464" y="1360" type="line"/>
			<point x="381" y="123" type="line" smooth="yes"/>
			<point x="379" y="99"/>
			<point x="378" y="82"/>
			<point x="378" y="71" type="curve" smooth="yes"/>
			<point x="376" y="7"/>
			<point x="405" y="-12"/>
		</contour>
	</outline>
	<anchor name="bottom" x="496" y="0"/>
	<anchor name="center" x="555" y="840"/>
	<anchor name="top" x="614" y="1600"/>
</glyph>
<glyph name="U" format="2">
	<unicode hex="0055"/>
	<advance width="1333"/>
	<outline>
		<contour>
			<point x="452" y="-12" type="curve" smooth="yes"/>
			<point x="682" y="-12"/>
			<point x="883" y="191"/>
			<point x="984" y="634" type="curve"/>
			<point x="962" y="636" type="line"/>
			<point x="949" y="540"/>
			<point x="929" y="384"/>
			<point x="920" y="272" type="curve" smooth="yes"/>
			<point x="909" y="138" type="line" smooth="yes"/>
			<point x="906" y="101"/>
			<point x="905" y="84"/>
			<point x="905" y="70" type="curve" smooth="yes"/>
			<point x="905" y="9"/>
			<point x="929" y="-12"/>
			<point x="1025" y="-12" type="curve" smooth="yes"/>
			<point x="1113" y="-12"/>
			<point x="1151" y="7"/>
			<point x="1155" y="66" type="curve" smooth="yes"/>
			<point x="1249" y="1453" type="line" smooth="yes"/>
			<point x="1252" y="1497"/>
			<point x="1253" y="1514"/>
			<point x="1253" y="1524" type="curve" smooth="yes"/>
			<point x="1253" y="1578"/>
			<point x="1223" y="1600"/>
			<point x="1136" y="1600" type="curve" smooth="yes"/>
			<point x="1035" y="1600"/>
			<point x="1005" y="1570"/>
			<point x="1000" y="1497" type="curve" smooth="yes"/>
			<point x="959" y="902" type="line"/>
			<point x="788" y="364"/>
			<point x="661" y="228"/>
			<point x="509" y="228" type="curve" smooth="yes"/>
			<point x="393" y="228"/>
			<point x="350" y="288"/>
			<point x="350" y="435" type="curve" smooth="yes"/>
			<point x="350" y="467"/>
			<point x="352" y="515"/>
			<point x="355" y="555" type="curve" smooth="yes"/>
			<point x="423" y="1453" type="line" smooth="yes"/>
			<point x="424" y="1466"/>
			<point x="428" y="1497"/>
			<point x="428" y="1519" type="curve" smooth="yes"/>
			<point x="428" y="1570"/>
			<point x="411" y="1600"/>
			<point x="310" y="1600" type="curve" smooth="yes"/>
			<point x="207" y="1600"/>
			<point x="178" y="1567"/>
			<point x="173" y="1497" type="curve" smooth="yes"/>
			<point x="110" y="615" type="line" smooth="yes"/>
			<point x="104" y="531"/>
			<point x="100" y="466"/>
			<point x="100" y="417" type="curve" smooth="yes"/>
			<point x="100" y="145"/>
			<point x="235" y="-12"/>
		</contour>
	</outline>
	<anchor name="bottom" x="591" y="0"/>
	<anchor name="ogonek" x="1080" y="0"/>
	<anchor name="top" x="721" y="1600"/>
	<anchor name="topright" x="1250" y="1600"/>
</glyph>
<glyph name="W" format="2">
	<unicode hex="0057"/>
	<advance width="1939"/>
	<outline>
		<contour>
			<point x="504" y="-12" type="curve" smooth="yes"/>
			<point x="567" y="-12"/>
			<point x="618" y="19"/>
			<point x="648" y="112" type="curve" smooth="yes"/>
			<point x="950" y="1064" type="line" smooth="yes"/>
			<point x="985" y="1174"/>
			<point x="1017" y="1326"/>
			<point x="1026" y="1417" type="curve"/>
			<point x="976" y="1417" type="line"/>
			<point x="985" y="1326"/>
			<point x="1009" y="1166"/>
			<point x="1030" y="1064" type="curve" smooth="yes"/>
			<point x="1211" y="187" type="line" smooth="yes"/>
			<point x="1246" y="16"/>
			<point x="1293" y="-12"/>
			<point x="1362" y="-12" type="curve" smooth="yes"/>
			<point x="1426" y="-12"/>
			<point x="1477" y="9"/>
			<point x="1526" y="153" type="curve" smooth="yes"/>
			<point x="1958" y="1421" type="line" smooth="yes"/>
			<point x="1973" y="1465"/>
			<point x="1979" y="1483"/>
			<point x="1979" y="1497" type="curve" smooth="yes"/>
			<point x="1979" y="1556"/>
			<point x="1901" y="1600"/>
			<point x="1838" y="1600" type="curve" smooth="yes"/>
			<point x="1789" y="1600"/>
			<point x="1759" y="1586"/>
			<point x="1741" y="1526" type="curve" smooth="yes"/>
			<point x="1461" y="606" type="line" smooth="yes"/>
			<point x="1424" y="486"/>
			<point x="1401" y="387"/>
			<point x="1376" y="261" type="curve"/>
			<point x="1418" y="261" type="line"/>
			<point x="1406" y="360"/>
			<point x="1387" y="484"/>
			<point x="1355" y="635" type="curve" smooth="yes"/>
			<point x="1197" y="1391" type="line" smooth="yes"/>
			<point x="1168" y="1529"/>
			<point x="1126" y="1563"/>
			<point x="1026" y="1563" type="curve" smooth="yes"/>
			<point x="941" y="1563"/>
			<point x="888" y="1519"/>
			<point x="851" y="1402" type="curve" smooth="yes"/>
			<point x="598" y="601" type="line" smooth="yes"/>
			<point x="563" y="491"/>
			<point x="530" y="361"/>
			<point x="506" y="262" type="curve"/>
			<point x="563" y="262" type="line"/>
			<point x="554" y="361"/>
			<point x="542" y="475"/>
			<point x="512" y="623" type="curve" smooth="yes"/>
			<point x="333" y="1496" type="line" smooth="yes"/>
			<point x="316" y="1578"/>
			<point x="289" y="1600"/>
			<point x="219" y="1600" type="curve" smooth="yes"/>
			<point x="136" y="1600"/>
			<point x="60" y="1553"/>
			<point x="60" y="1489" type="curve" smooth="yes"/>
			<point x="60" y="1472"/>
			<point x="65" y="1446"/>
			<point x="76" y="1397" type="curve" smooth="yes"/>
			<point x="356" y="155" type="line" smooth="yes"/>
			<point x="386" y="22"/>
			<point x="425" y="-12"/>
		</contour>
	</outline>
	<anchor name="bottom" x="936" y="0"/>
	<anchor name="top" x="1040" y="1600"/>
</glyph>
<glyph name="X" format="2">
	<unicode hex="0058"/>
	<advance width="1215"/>
	<outline>
		<contour>
			<point x="131" y="-12" type="curve" smooth="yes"/>
			<point x="152" y="-12"/>
			<point x="175" y="-5"/>
			<point x="214" y="52" type="curve" smooth="yes"/>
			<point x="601" y="620" type="line"/>
			<point x="746" y="783" type="line"/>
			<point x="1185" y="1390" type="line" smooth="yes"/>
			<point x="1213" y="1428"/>
			<point x="1225" y="1451"/>
			<point x="1225" y="1472" type="curve" smooth="yes"/>
			<point x="1225" y="1531"/>
			<point x="1150" y="1600"/>
			<point x="1074" y="1600" type="curve" smooth="yes"/>
			<point x="1040" y="1600"/>
			<point x="1017" y="1585"/>
			<point x="988" y="1542" type="curve" smooth="yes"/>
			<point x="628" y="1004" type="line"/>
			<point x="481" y="841" type="line"/>
			<point x="27" y="207" type="line" smooth="yes"/>
			<point x="-11" y="153"/>
			<point x="-20" y="139"/>
			<point x="-20" y="118" type="curve" smooth="yes"/>
			<point x="-20" y="59"/>
			<point x="51" y="-12"/>
		</contour>
		<contour>
			<point x="973" y="-12" type="curve" smooth="yes"/>
			<point x="1053" y="-12"/>
			<point x="1131" y="64"/>
			<point x="1129" y="105" type="curve" smooth="yes"/>
			<point x="1130" y="124"/>
			<point x="1127" y="144"/>
			<point x="1105" y="185" type="curve" smooth="yes"/>
			<point x="379" y="1512" type="line" smooth="yes"/>
			<point x="337" y="1588"/>
			<point x="325" y="1600"/>
			<point x="282" y="1600" type="curve" smooth="yes"/>
			<point x="201" y="1600"/>
			<point x="119" y="1531"/>
			<point x="119" y="1476" type="curve" smooth="yes"/>
			<point x="119" y="1448"/>
			<point x="128" y="1426"/>
			<point x="162" y="1364" type="curve" smooth="yes"/>
			<point x="848" y="124" type="line" smooth="yes"/>
			<point x="905" y="22"/>
			<point x="933" y="-12"/>
		</contour>
	</outline>
	<anchor name="bottom" x="520" y="0"/>
	<anchor name="top" x="641" y="1598"/>
</glyph>
<glyph name="Z" format="2">
	<unicode hex="005A"/>
	<advance width="1169"/>
	<outline>
		<contour>
			<point x="200" y="0" type="curve" smooth="yes"/>
			<point x="956" y="0" type="line" smooth="yes"/>
			<point x="1048" y="0"/>
			<point x="1085" y="42"/>
			<point x="1085" y="140" type="curve" smooth="yes"/>
			<point x="1085" y="210"/>
			<point x="1052" y="240"/>
			<point x="978" y="240" type="curve" smooth="yes"/>
			<point x="299" y="240" type="line"/>
			<point x="1085" y="1272" type="line" smooth="yes"/>
			<point x="1149" y="1356"/>
			<point x="1159" y="1390"/>
			<point x="1159" y="1440" type="curve" smooth="yes"/>
			<point x="1159" y="1531"/>
			<point x="1099" y="1600"/>
			<point x="969" y="1600" type="curve" smooth="yes"/>
			<point x="279" y="1600" type="line" smooth="yes"/>
			<point x="195" y="1600"/>
			<point x="144" y="1556"/>
			<point x="144" y="1460" type="curve" smooth="yes"/>
			<point x="144" y="1388"/>
			<point x="187" y="1360"/>
			<point x="264" y="1360" type="curve" smooth="yes"/>
			<point x="860" y="1360" type="line"/>
			<point x="74" y="328" type="line" smooth="yes"/>
			<point x="36" y="278"/>
			<point x="10" y="230"/>
			<point x="10" y="160" type="curve" smooth="yes"/>
			<point x="10" y="66"/>
			<point x="85" y="0"/>
		</contour>
	</outline>
	<anchor name="bottom" x="394" y="0"/>
	<anchor name="center" x="530" y="820"/>
	<anchor name="top" x="601" y="1600"/>
	<anchor name="topright" x="1096" y="1600"/>
</glyph>
<glyph name="backslash" format="2">
	<unicode hex="005C"/>
	<advance width="1022"/>
	<outline>
		<contour>
			<point x="871" y="-155" type="curve" smooth="yes"/>
			<point x="933" y="-155"/>
			<point x="997" y="-111"/>
			<point x="997" y="-55" type="curve" smooth="yes"/>
			<point x="997" y="-32"/>
			<point x="989" y="-7"/>
			<point x="975" y="24" type="curve" smooth="yes"/>
			<point x="244" y="1624" type="line" smooth="yes"/>
			<point x="218" y="1681"/>
			<point x="191" y="1695"/>
			<point x="158" y="1695" type="curve" smooth="yes"/>
			<point x="90" y="1695"/>
			<point x="30" y="1639"/>
			<point x="30" y="1590" type="curve" smooth="yes"/>
			<point x="30" y="1573"/>
			<point x="33" y="1558"/>
			<point x="60" y="1499" type="curve" smooth="yes"/>
			<point x="794" y="-97" type="line" smooth="yes"/>
			<point x="811" y="-134"/>
			<point x="834" y="-155"/>
		</contour>
	</outline>
</glyph>
<glyph name="bracketright" format="2">
	<unicode hex="005D"/>
	<advance width="796"/>
	<outline>
		<contour>
			<point x="484" y="1767" type="curve" smooth="yes"/>
			<point x="302" y="1767" type="line" smooth="yes"/>
			<point x="195" y="1767"/>
			<point x="160" y="1730"/>
			<point x="160" y="1623" type="curve" smooth="yes"/>
			<point x="160" y="1549"/>
			<point x="210" y="1527"/>
			<point x="288" y="1527" type="curve" smooth="yes"/>
			<point x="375" y="1527" type="line" smooth="yes"/>
			<point x="413" y="1527"/>
			<point x="425" y="1513"/>
			<point x="425" y="1475" type="curve" smooth="yes"/>
			<point x="425" y="1455"/>
			<point x="423" y="1425"/>
			<point x="421" y="1402" type="curve" smooth="yes"/>
			<point x="311" y="-72" type="line" smooth="yes"/>
			<point x="306" y="-143"/>
			<point x="286" y="-158"/>
			<point x="232" y="-158" type="curve" smooth="yes"/>
			<point x="132" y="-158" type="line" smooth="yes"/>
			<point x="39" y="-158"/>
			<point x="4" y="-192"/>
			<point x="4" y="-284" type="curve" smooth="yes"/>
			<point x="4" y="-370"/>
			<point x="39" y="-398"/>
			<point x="146" y="-398" type="curve" smooth="yes"/>
			<point x="328" y="-398" type="line" smooth="yes"/>
			<point x="462" y="-398"/>
			<point x="536" y="-318"/>
			<point x="547" y="-175" type="curve" smooth="yes"/>
			<point x="671" y="1485" type="line" smooth="yes"/>
			<point x="674" y="1527"/>
			<point x="676" y="1545"/>
			<point x="676" y="1565" type="curve" smooth="yes"/>
			<point x="676" y="1684"/>
			<point x="601" y="1767"/>
		</contour>
	</outline>
</glyph>
<glyph name="b" format="2">
	<unicode hex="0062"/>
	<advance width="1052"/>
	<outline>
		<contour>
			<point x="452" y="-22" type="curve" smooth="yes"/>
			<point x="742" y="-22"/>
			<point x="972" y="254"/>
			<point x="972" y="630" type="curve" smooth="yes"/>
			<point x="972" y="890"/>
			<point x="860" y="1000"/>
			<point x="710" y="1000" type="curve" smooth="yes"/>
			<point x="539" y="1000"/>
			<point x="396" y="867"/>
			<point x="227" y="458" type="curve"/>
			<point x="308" y="426" type="line"/>
			<point x="419" y="689"/>
			<point x="538" y="790"/>
			<point x="620" y="790" type="curve" smooth="yes"/>
			<point x="681" y="790"/>
			<point x="727" y="739"/>
			<point x="727" y="590" type="curve" smooth="yes"/>
			<point x="727" y="351"/>
			<point x="600" y="168"/>
			<point x="467" y="168" type="curve" smooth="yes"/>
			<point x="379" y="168"/>
			<point x="330" y="225"/>
			<point x="330" y="372" type="curve" smooth="yes"/>
			<point x="330" y="403"/>
			<point x="332" y="452"/>
			<point x="337" y="516" type="curve" smooth="yes"/>
			<point x="396" y="1279" type="line" smooth="yes"/>
			<point x="398" y="1302"/>
			<point x="400" y="1337"/>
			<point x="400" y="1352" type="curve" smooth="yes"/>
			<point x="400" y="1407"/>
			<point x="373" y="1425"/>
			<point x="289" y="1425" type="curve" smooth="yes"/>
			<point x="193" y="1425"/>
			<point x="166" y="1412"/>
			<point x="160" y="1315" type="curve" smooth="yes"/>
			<point x="109" y="547" type="line" smooth="yes"/>
			<point x="103" y="459"/>
			<point x="100" y="402"/>
			<point x="100" y="338" type="curve" smooth="yes"/>
			<point x="100" y="109"/>
			<point x="246" y="-22"/>
		</contour>
	</outline>
</glyph>
<glyph name="d" format="2">
	<unicode hex="0064"/>
	<advance width="1065"/>
	<outline>
		<contour>
			<point x="353" y="-12" type="curve" smooth="yes"/>
			<point x="516" y="-12"/>
			<point x="678" y="165"/>
			<point x="831" y="691" type="curve"/>
			<point x="736" y="736" type="line"/>
			<point x="654" y="407"/>
			<point x="522" y="198"/>
			<point x="420" y="198" type="curve" smooth="yes"/>
			<point x="362" y="198"/>
			<point x="325" y="246"/>
			<point x="325" y="382" type="curve" smooth="yes"/>
			<point x="325" y="625"/>
			<point x="433" y="790"/>
			<point x="582" y="790" type="curve" smooth="yes"/>
			<point x="637" y="790"/>
			<point x="703" y="768"/>
			<point x="753" y="733" type="curve"/>
			<point x="796" y="770" type="line"/>
			<point x="720" y="929"/>
			<point x="644" y="1000"/>
			<point x="510" y="1000" type="curve" smooth="yes"/>
			<point x="284" y="1000"/>
			<point x="80" y="744"/>
			<point x="80" y="368" type="curve" smooth="yes"/>
			<point x="80" y="120"/>
			<point x="184" y="-12"/>
		</contour>
		<contour>
			<point x="805" y="-12" type="curve" smooth="yes"/>
			<point x="888" y="-12"/>
			<point x="926" y="9"/>
			<point x="930" y="64" type="curve" smooth="yes"/>
			<point x="1016" y="1279" type="line" smooth="yes"/>
			<point x="1018" y="1302"/>
			<point x="1020" y="1337"/>
			<point x="1020" y="1352" type="curve" smooth="yes"/>
			<point x="1020" y="1407"/>
			<point x="993" y="1425"/>
			<point x="909" y="1425" type="curve" smooth="yes"/>
			<point x="813" y="1425"/>
			<point x="787" y="1412"/>
			<point x="780" y="1315" type="curve" smooth="yes"/>
			<point x="695" y="156" type="line" smooth="yes"/>
			<point x="692" y="121"/>
			<point x="690" y="87"/>
			<point x="690" y="67" type="curve" smooth="yes"/>
			<point x="690" y="11"/>
			<point x="718" y="-12"/>
		</contour>
	</outline>
	<anchor name="bottom" x="446" y="0"/>
	<anchor name="center" x="833" y="1163"/>
	<anchor name="top" x="905" y="1400"/>
	<anchor name="topright" x="1026" y="1400"/>
</glyph>
<glyph name="f" format="2">
	<unicode hex="0066"/>
	<advance width="720"/>
	<outline>
		<contour>
			<point x="376" y="-394" type="curve" smooth="yes"/>
			<point x="468" y="1017" type="line" smooth="yes"/>
			<point x="478" y="1172"/>
			<point x="529" y="1215"/>
			<point x="600" y="1215" type="curve" smooth="yes"/>
			<point x="642" y="1215"/>
			<point x="684" y="1196"/>
			<point x="724" y="1173" type="curve" smooth="yes"/>
			<point x="748" y="1159"/>
			<point x="760" y="1153"/>
			<point x="783" y="1153" type="curve" smooth="yes"/>
			<point x="827" y="1153"/>
			<point x="873" y="1211"/>
			<point x="873" y="1261" type="curve" smooth="yes"/>
			<point x="873" y="1329"/>
			<point x="749" y="1425"/>
			<point x="589" y="1425" type="curve" smooth="yes"/>
			<point x="392" y="1425"/>
			<point x="244" y="1284"/>
			<point x="229" y="1050" type="curve" smooth="yes"/>
			<point x="139" y="-337" type="line" smooth="yes"/>
			<point x="137" y="-371"/>
			<point x="136" y="-383"/>
			<point x="136" y="-391" type="curve" smooth="yes"/>
			<point x="136" y="-447"/>
			<point x="164" y="-470"/>
			<point x="251" y="-470" type="curve" smooth="yes"/>
			<point x="334" y="-470"/>
			<point x="372" y="-449"/>
		</contour>
		<contour>
			<point x="99" y="785" type="curve" smooth="yes"/>
			<point x="658" y="785" type="line" smooth="yes"/>
			<point x="702" y="785"/>
			<point x="734" y="818"/>
			<point x="734" y="906" type="curve" smooth="yes"/>
			<point x="734" y="953"/>
			<point x="715" y="975"/>
			<point x="678" y="975" type="curve" smooth="yes"/>
			<point x="119" y="975" type="line" smooth="yes"/>
			<point x="73" y="975"/>
			<point x="40" y="944"/>
			<point x="40" y="861" type="curve" smooth="yes"/>
			<point x="40" y="809"/>
			<point x="61" y="785"/>
		</contour>
	</outline>
	<guideline x="343" y="454" angle="86.1904"/>
	<guideline x="120" y="870" angle="90"/>
</glyph>
<glyph name="g" format="2">
	<unicode hex="0067"/>
	<advance width="1085"/>
	<outline>
		<contour>
			<point x="457" y="-470" type="curve" smooth="yes"/>
			<point x="725" y="-470"/>
			<point x="909" y="-333"/>
			<point x="942" y="176" type="curve" smooth="yes"/>
			<point x="988" y="884" type="line" smooth="yes"/>
			<point x="989" y="907"/>
			<point x="990" y="922"/>
			<point x="990" y="927" type="curve" smooth="yes"/>
			<point x="990" y="982"/>
			<point x="962" y="1000"/>
			<point x="875" y="1000" type="curve" smooth="yes"/>
			<point x="779" y="1000"/>
			<point x="752" y="987"/>
			<point x="746" y="890" type="curve" smooth="yes"/>
			<point x="705" y="218" type="line" smooth="yes"/>
			<point x="680" y="-195"/>
			<point x="575" y="-260"/>
			<point x="444" y="-260" type="curve" smooth="yes"/>
			<point x="350" y="-260"/>
			<point x="268" y="-218"/>
			<point x="194" y="-162" type="curve" smooth="yes"/>
			<point x="173" y="-146"/>
			<point x="160" y="-140"/>
			<point x="148" y="-140" type="curve" smooth="yes"/>
			<point x="94" y="-140"/>
			<point x="39" y="-210"/>
			<point x="39" y="-272" type="curve" smooth="yes"/>
			<point x="39" y="-340"/>
			<point x="232" y="-470"/>
		</contour>
		<contour>
			<point x="333" y="-12" type="curve" smooth="yes"/>
			<point x="513" y="-12"/>
			<point x="672" y="165"/>
			<point x="831" y="691" type="curve"/>
			<point x="737" y="736" type="line"/>
			<point x="654" y="407"/>
			<point x="516" y="199"/>
			<point x="421" y="199" type="curve" smooth="yes"/>
			<point x="362" y="199"/>
			<point x="325" y="246"/>
			<point x="325" y="398" type="curve" smooth="yes"/>
			<point x="325" y="625"/>
			<point x="433" y="790"/>
			<point x="582" y="790" type="curve" smooth="yes"/>
			<point x="637" y="790"/>
			<point x="703" y="768"/>
			<point x="753" y="733" type="curve"/>
			<point x="796" y="770" type="line"/>
			<point x="720" y="929"/>
			<point x="644" y="1000"/>
			<point x="510" y="1000" type="curve" smooth="yes"/>
			<point x="284" y="1000"/>
			<point x="80" y="744"/>
			<point x="80" y="368" type="curve" smooth="yes"/>
			<point x="80" y="129"/>
			<point x="179" y="-12"/>
		</contour>
	</outline>
	<anchor name="top" x="611" y="975"/>
	<guideline x="80" y="368" angle="90"/>
</glyph>
<glyph name="h" format="2">
	<unicode hex="0068"/>
	<advance width="1102"/>
	<outline>
		<contour>
			<point x="215" y="-12" type="curve" smooth="yes"/>
			<point x="296" y="-12"/>
			<point x="337" y="9"/>
			<point x="340" y="64" type="curve" smooth="yes"/>
			<point x="342" y="100"/>
			<point x="343" y="137"/>
			<point x="344" y="173" type="curve"/>
			<point x="386" y="478"/>
			<point x="556" y="770"/>
			<point x="691" y="770" type="curve" smooth="yes"/>
			<point x="738" y="770"/>
			<point x="755" y="744"/>
			<point x="755" y="680" type="curve" smooth="yes"/>
			<point x="755" y="651"/>
			<point x="753" y="622"/>
			<point x="748" y="568" type="curve" smooth="yes"/>
			<point x="711" y="156" type="line" smooth="yes"/>
			<point x="708" y="121"/>
			<point x="706" y="87"/>
			<point x="706" y="67" type="curve" smooth="yes"/>
			<point x="706" y="11"/>
			<point x="734" y="-12"/>
			<point x="821" y="-12" type="curve" smooth="yes"/>
			<point x="904" y="-12"/>
			<point x="942" y="9"/>
			<point x="946" y="64" type="curve" smooth="yes"/>
			<point x="986" y="608" type="line" smooth="yes"/>
			<point x="990" y="656"/>
			<point x="992" y="698"/>
			<point x="992" y="759" type="curve" smooth="yes"/>
			<point x="992" y="907"/>
			<point x="915" y="1000"/>
			<point x="789" y="1000" type="curve" smooth="yes"/>
			<point x="631" y="1000"/>
			<point x="470" y="861"/>
			<point x="354" y="551" type="curve"/>
			<point x="364" y="548" type="line"/>
			<point x="424" y="1279" type="line" smooth="yes"/>
			<point x="427" y="1317"/>
			<point x="428" y="1337"/>
			<point x="428" y="1352" type="curve" smooth="yes"/>
			<point x="428" y="1407"/>
			<point x="401" y="1425"/>
			<point x="317" y="1425" type="curve" smooth="yes"/>
			<point x="221" y="1425"/>
			<point x="195" y="1412"/>
			<point x="188" y="1315" type="curve" smooth="yes"/>
			<point x="104" y="156" type="line" smooth="yes"/>
			<point x="101" y="121"/>
			<point x="100" y="87"/>
			<point x="100" y="67" type="curve" smooth="yes"/>
			<point x="100" y="11"/>
			<point x="128" y="-12"/>
		</contour>
	</outline>
	<anchor name="bottom" x="494" y="0"/>
	<anchor name="center" x="325" y="1085"/>
	<anchor name="top" x="315" y="1400"/>
</glyph>
<glyph name="k" format="2">
	<unicode hex="006B"/>
	<advance width="1069"/>
	<outline>
		<contour>
			<point x="871" y="-12" type="curve" smooth="yes"/>
			<point x="940" y="-12"/>
			<point x="1007" y="63"/>
			<point x="1007" y="126" type="curve" smooth="yes"/>
			<point x="1007" y="148"/>
			<point x="997" y="168"/>
			<point x="966" y="203" type="curve" smooth="yes"/>
			<point x="604" y="609" type="line"/>
			<point x="594" y="536" type="line"/>
			<point x="953" y="772" type="line" smooth="yes"/>
			<point x="1010" y="810"/>
			<point x="1019" y="826"/>
			<point x="1019" y="856" type="curve" smooth="yes"/>
			<point x="1019" y="922"/>
			<point x="963" y="1000"/>
			<point x="900" y="1000" type="curve" smooth="yes"/>
			<point x="880" y="1000"/>
			<point x="863" y="992"/>
			<point x="818" y="958" type="curve" smooth="yes"/>
			<point x="510" y="730" type="line" smooth="yes"/>
			<point x="414" y="659"/>
			<point x="398" y="625"/>
			<point x="398" y="584" type="curve" smooth="yes"/>
			<point x="398" y="543"/>
			<point x="403" y="515"/>
			<point x="494" y="402" type="curve" smooth="yes"/>
			<point x="780" y="47" type="line" smooth="yes"/>
			<point x="819" y="-2"/>
			<point x="843" y="-12"/>
		</contour>
		<contour>
			<point x="215" y="-12" type="curve" smooth="yes"/>
			<point x="296" y="-12"/>
			<point x="333" y="9"/>
			<point x="337" y="64" type="curve" smooth="yes"/>
			<point x="425" y="1278" type="line" smooth="yes"/>
			<point x="428" y="1316"/>
			<point x="429" y="1336"/>
			<point x="429" y="1351" type="curve" smooth="yes"/>
			<point x="429" y="1406"/>
			<point x="402" y="1425"/>
			<point x="318" y="1425" type="curve" smooth="yes"/>
			<point x="222" y="1425"/>
			<point x="196" y="1411"/>
			<point x="189" y="1313" type="curve" smooth="yes"/>
			<point x="105" y="156" type="line" smooth="yes"/>
			<point x="102" y="117"/>
			<point x="100" y="87"/>
			<point x="100" y="67" type="curve" smooth="yes"/>
			<point x="100" y="11"/>
			<point x="128" y="-12"/>
		</contour>
	</outline>
	<anchor name="bottom" x="530" y="0"/>
	<anchor name="top" x="316" y="1400"/>
</glyph>
<glyph name="l" format="2">
	<unicode hex="006C"/>
	<advance width="592"/>
	<outline>
		<contour>
			<point x="342" y="-12" type="curve" smooth="yes"/>
			<point x="412" y="-12"/>
			<point x="486" y="15"/>
			<point x="530" y="64" type="curve" smooth="yes"/>
			<point x="565" y="102"/>
			<point x="572" y="138"/>
			<point x="572" y="158" type="curve" smooth="yes"/>
			<point x="572" y="197"/>
			<point x="530" y="246"/>
			<point x="480" y="246" type="curve" smooth="yes"/>
			<point x="467" y="246"/>
			<point x="456" y="240"/>
			<point x="440" y="226" type="curve" smooth="yes"/>
			<point x="419" y="207"/>
			<point x="398" y="198"/>
			<point x="381" y="198" type="curve" smooth="yes"/>
			<point x="348" y="198"/>
			<point x="336" y="217"/>
			<point x="336" y="270" type="curve" smooth="yes"/>
			<point x="336" y="294"/>
			<point x="337" y="327"/>
			<point x="342" y="376" type="curve" smooth="yes"/>
			<point x="410" y="1279" type="line" smooth="yes"/>
			<point x="413" y="1317"/>
			<point x="414" y="1337"/>
			<point x="414" y="1352" type="curve" smooth="yes"/>
			<point x="414" y="1407"/>
			<point x="387" y="1425"/>
			<point x="303" y="1425" type="curve" smooth="yes"/>
			<point x="207" y="1425"/>
			<point x="181" y="1412"/>
			<point x="174" y="1315" type="curve" smooth="yes"/>
			<point x="107" y="384" type="line" smooth="yes"/>
			<point x="102" y="313"/>
			<point x="100" y="283"/>
			<point x="100" y="241" type="curve" smooth="yes"/>
			<point x="100" y="89"/>
			<point x="189" y="-12"/>
		</contour>
	</outline>
	<anchor name="bottom" x="312" y="0"/>
	<anchor name="center" x="265" y="868"/>
	<anchor name="top" x="301" y="1400"/>
	<anchor name="topright" x="413" y="1400"/>
</glyph>
<glyph name="q" format="2">
	<unicode hex="0071"/>
	<advance width="1090"/>
	<outline>
		<contour>
			<point x="335" y="-12" type="curve" smooth="yes"/>
			<point x="503" y="-12"/>
			<point x="672" y="165"/>
			<point x="831" y="691" type="curve"/>
			<point x="736" y="736" type="line"/>
			<point x="654" y="407"/>
			<point x="522" y="198"/>
			<point x="420" y="198" type="curve" smooth="yes"/>
			<point x="362" y="198"/>
			<point x="325" y="246"/>
			<point x="325" y="398" type="curve" smooth="yes"/>
			<point x="325" y="625"/>
			<point x="433" y="790"/>
			<point x="582" y="790" type="curve" smooth="yes"/>
			<point x="637" y="790"/>
			<point x="703" y="768"/>
			<point x="753" y="733" type="curve"/>
			<point x="796" y="770" type="line"/>
			<point x="720" y="929"/>
			<point x="644" y="1000"/>
			<point x="510" y="1000" type="curve" smooth="yes"/>
			<point x="284" y="1000"/>
			<point x="80" y="744"/>
			<point x="80" y="368" type="curve" smooth="yes"/>
			<point x="80" y="121"/>
			<point x="188" y="-12"/>
		</contour>
		<contour>
			<point x="770" y="-470" type="curve" smooth="yes"/>
			<point x="853" y="-470"/>
			<point x="891" y="-449"/>
			<point x="895" y="-394" type="curve" smooth="yes"/>
			<point x="986" y="834" type="line" smooth="yes"/>
			<point x="989" y="877"/>
			<point x="990" y="892"/>
			<point x="990" y="927" type="curve" smooth="yes"/>
			<point x="990" y="982"/>
			<point x="962" y="1000"/>
			<point x="875" y="1000" type="curve" smooth="yes"/>
			<point x="779" y="1000"/>
			<point x="753" y="987"/>
			<point x="746" y="890" type="curve" smooth="yes"/>
			<point x="659" y="-301" type="line" smooth="yes"/>
			<point x="656" y="-336"/>
			<point x="655" y="-371"/>
			<point x="655" y="-391" type="curve" smooth="yes"/>
			<point x="655" y="-447"/>
			<point x="683" y="-470"/>
		</contour>
	</outline>
</glyph>
<glyph name="u" format="2">
	<unicode hex="0075"/>
	<advance width="1071"/>
	<outline>
		<contour>
			<point x="343" y="-12" type="curve" smooth="yes"/>
			<point x="498" y="-12"/>
			<point x="627" y="117"/>
			<point x="690" y="335" type="curve"/>
			<point x="684" y="341" type="line"/>
			<point x="664" y="131" type="line" smooth="yes"/>
			<point x="663" y="111"/>
			<point x="661" y="87"/>
			<point x="661" y="67" type="curve" smooth="yes"/>
			<point x="661" y="11"/>
			<point x="689" y="-12"/>
			<point x="776" y="-12" type="curve" smooth="yes"/>
			<point x="859" y="-12"/>
			<point x="897" y="9"/>
			<point x="901" y="64" type="curve" smooth="yes"/>
			<point x="957" y="864" type="line" smooth="yes"/>
			<point x="959" y="890"/>
			<point x="961" y="921"/>
			<point x="961" y="937" type="curve" smooth="yes"/>
			<point x="961" y="984"/>
			<point x="937" y="1000"/>
			<point x="845" y="1000" type="curve" smooth="yes"/>
			<point x="754" y="1000"/>
			<point x="722" y="988"/>
			<point x="717" y="900" type="curve" smooth="yes"/>
			<point x="714" y="852" type="line"/>
			<point x="651" y="369"/>
			<point x="532" y="198"/>
			<point x="435" y="198" type="curve" smooth="yes"/>
			<point x="370" y="198"/>
			<point x="340" y="228"/>
			<point x="340" y="307" type="curve" smooth="yes"/>
			<point x="340" y="334"/>
			<point x="343" y="383"/>
			<point x="348" y="442" type="curve" smooth="yes"/>
			<point x="381" y="864" type="line" smooth="yes"/>
			<point x="384" y="902"/>
			<point x="386" y="922"/>
			<point x="386" y="937" type="curve" smooth="yes"/>
			<point x="386" y="984"/>
			<point x="358" y="1000"/>
			<point x="271" y="1000" type="curve" smooth="yes"/>
			<point x="175" y="1000"/>
			<point x="148" y="988"/>
			<point x="142" y="900" type="curve" smooth="yes"/>
			<point x="107" y="400" type="line" smooth="yes"/>
			<point x="103" y="350"/>
			<point x="100" y="308"/>
			<point x="100" y="263" type="curve" smooth="yes"/>
			<point x="100" y="92"/>
			<point x="198" y="-12"/>
		</contour>
	</outline>
	<anchor name="bottom" x="432" y="0"/>
	<anchor name="ogonek" x="825" y="0"/>
	<anchor name="top" x="566" y="985"/>
	<anchor name="topright" x="852" y="985"/>
</glyph>
<glyph name="y" format="2">
	<unicode hex="0079"/>
	<advance width="1013"/>
	<outline>
		<contour>
			<point x="323" y="-470" type="curve" smooth="yes"/>
			<point x="393" y="-470"/>
			<point x="421" y="-435"/>
			<point x="492" y="-274" type="curve" smooth="yes"/>
			<point x="956" y="784" type="line" smooth="yes"/>
			<point x="980" y="839"/>
			<point x="993" y="879"/>
			<point x="993" y="904" type="curve" smooth="yes"/>
			<point x="993" y="953"/>
			<point x="906" y="1000"/>
			<point x="839" y="1000" type="curve" smooth="yes"/>
			<point x="794" y="1000"/>
			<point x="779" y="989"/>
			<point x="758" y="935" type="curve" smooth="yes"/>
			<point x="470" y="193" type="line"/>
			<point x="485" y="191" type="line"/>
			<point x="324" y="923" type="line" smooth="yes"/>
			<point x="311" y="983"/>
			<point x="288" y="1000"/>
			<point x="240" y="1000" type="curve" smooth="yes"/>
			<point x="157" y="1000"/>
			<point x="65" y="972"/>
			<point x="65" y="903" type="curve" smooth="yes"/>
			<point x="65" y="887"/>
			<point x="69" y="872"/>
			<point x="76" y="847" type="curve" smooth="yes"/>
			<point x="291" y="119" type="line" smooth="yes"/>
			<point x="317" y="32"/>
			<point x="361" y="-3"/>
			<point x="399" y="-12" type="curve"/>
			<point x="391" y="27" type="line"/>
			<point x="346" y="-66" type="line" smooth="yes"/>
			<point x="302" y="-157"/>
			<point x="282" y="-195"/>
			<point x="238" y="-264" type="curve" smooth="yes"/>
			<point x="192" y="-336"/>
			<point x="180" y="-366"/>
			<point x="180" y="-394" type="curve" smooth="yes"/>
			<point x="180" y="-432"/>
			<point x="242" y="-470"/>
		</contour>
	</outline>
	<anchor name="top" x="549" y="985"/>
	<anchor name="topright" x="944" y="985"/>
</glyph>
<glyph name="exclamdown" format="2">
	<unicode hex="00A1"/>
	<advance width="591"/>
	<outline>
		<contour>
			<point x="265" y="508" type="curve" smooth="yes"/>
			<point x="182" y="508"/>
			<point x="153" y="489"/>
			<point x="148" y="423" type="curve" smooth="yes"/>
			<point x="94" y="-271" type="line" smooth="yes"/>
			<point x="90" y="-317"/>
			<point x="90" y="-332"/>
			<point x="90" y="-349" type="curve" smooth="yes"/>
			<point x="90" y="-395"/>
			<point x="123" y="-412"/>
			<point x="200" y="-412" type="curve" smooth="yes"/>
			<point x="256" y="-412"/>
			<point x="302" y="-403"/>
			<point x="307" y="-331" type="curve" smooth="yes"/>
			<point x="355" y="374" type="line" smooth="yes"/>
			<point x="357" y="401"/>
			<point x="358" y="413"/>
			<point x="358" y="438" type="curve" smooth="yes"/>
			<point x="358" y="469"/>
			<point x="351" y="508"/>
		</contour>
		<contour>
			<point x="303" y="1000" type="curve" smooth="yes"/>
			<point x="218" y="1000"/>
			<point x="142" y="930"/>
			<point x="142" y="836" type="curve" smooth="yes"/>
			<point x="142" y="745"/>
			<point x="196" y="686"/>
			<point x="281" y="686" type="curve" smooth="yes"/>
			<point x="366" y="686"/>
			<point x="441" y="757"/>
			<point x="441" y="852" type="curve" smooth="yes"/>
			<point x="441" y="941"/>
			<point x="388" y="1000"/>
		</contour>
	</outline>
</glyph>
<glyph name="sterling" format="2">
	<unicode hex="00A3"/>
	<advance width="1200"/>
	<outline>
		<contour>
			<point x="210" y="-21" type="curve" smooth="yes"/>
			<point x="395" y="-21"/>
			<point x="554" y="131"/>
			<point x="581" y="823" type="curve" smooth="yes"/>
			<point x="601" y="1326"/>
			<point x="682" y="1396"/>
			<point x="801" y="1396" type="curve" smooth="yes"/>
			<point x="849" y="1396"/>
			<point x="881" y="1386"/>
			<point x="934" y="1352" type="curve" smooth="yes"/>
			<point x="965" y="1332"/>
			<point x="975" y="1329"/>
			<point x="990" y="1329" type="curve" smooth="yes"/>
			<point x="1051" y="1329"/>
			<point x="1095" y="1389"/>
			<point x="1095" y="1444" type="curve" smooth="yes"/>
			<point x="1095" y="1473"/>
			<point x="1082" y="1500"/>
			<point x="1042" y="1534" type="curve" smooth="yes"/>
			<point x="982" y="1585"/>
			<point x="898" y="1620"/>
			<point x="805" y="1620" type="curve" smooth="yes"/>
			<point x="529" y="1620"/>
			<point x="340" y="1397"/>
			<point x="330" y="820" type="curve" smooth="yes"/>
			<point x="320" y="243"/>
			<point x="292" y="143"/>
			<point x="207" y="143" type="curve" smooth="yes"/>
			<point x="193" y="143"/>
			<point x="176" y="149"/>
			<point x="176" y="168" type="curve" smooth="yes"/>
			<point x="176" y="184"/>
			<point x="191" y="196"/>
			<point x="221" y="196" type="curve" smooth="yes"/>
			<point x="279" y="196"/>
			<point x="354" y="161"/>
			<point x="442" y="114" type="curve" smooth="yes"/>
			<point x="561" y="52"/>
			<point x="701" y="-21"/>
			<point x="835" y="-21" type="curve" smooth="yes"/>
			<point x="973" y="-21"/>
			<point x="1080" y="39"/>
			<point x="1135" y="151" type="curve" smooth="yes"/>
			<point x="1158" y="197"/>
			<point x="1165" y="231"/>
			<point x="1165" y="251" type="curve" smooth="yes"/>
			<point x="1165" y="302"/>
			<point x="1113" y="339"/>
			<point x="1059" y="339" type="curve" smooth="yes"/>
			<point x="1032" y="339"/>
			<point x="1018" y="321"/>
			<point x="1000" y="300" type="curve" smooth="yes"/>
			<point x="959" y="251"/>
			<point x="914" y="227"/>
			<point x="846" y="227" type="curve" smooth="yes"/>
			<point x="749" y="227"/>
			<point x="652" y="259"/>
			<point x="549" y="295" type="curve" smooth="yes"/>
			<point x="447" y="330"/>
			<point x="358" y="347"/>
			<point x="257" y="347" type="curve" smooth="yes"/>
			<point x="113" y="347"/>
			<point x="26" y="260"/>
			<point x="26" y="145" type="curve" smooth="yes"/>
			<point x="26" y="54"/>
			<point x="97" y="-21"/>
		</contour>
		<contour>
			<point x="180" y="698" type="curve" smooth="yes"/>
			<point x="936" y="698" type="line" smooth="yes"/>
			<point x="990" y="698"/>
			<point x="1007" y="752"/>
			<point x="1007" y="820" type="curve" smooth="yes"/>
			<point x="1007" y="885"/>
			<point x="981" y="913"/>
			<point x="939" y="913" type="curve" smooth="yes"/>
			<point x="182" y="913" type="line" smooth="yes"/>
			<point x="135" y="913"/>
			<point x="117" y="859"/>
			<point x="117" y="793" type="curve" smooth="yes"/>
			<point x="117" y="730"/>
			<point x="139" y="698"/>
		</contour>
	</outline>
</glyph>
<glyph name="ordfeminine" format="2">
	<unicode hex="00AA"/>
	<advance width="887"/>
	<outline>
		<contour>
			<point x="272" y="795" type="curve" smooth="yes"/>
			<point x="413" y="795"/>
			<point x="553" y="937"/>
			<point x="684" y="1358" type="curve"/>
			<point x="604" y="1394" type="line"/>
			<point x="537" y="1136"/>
			<point x="428" y="971"/>
			<point x="343" y="971" type="curve" smooth="yes"/>
			<point x="296" y="971"/>
			<point x="265" y="1007"/>
			<point x="265" y="1128" type="curve" smooth="yes"/>
			<point x="265" y="1302"/>
			<point x="354" y="1433"/>
			<point x="477" y="1433" type="curve" smooth="yes"/>
			<point x="522" y="1433"/>
			<point x="578" y="1416"/>
			<point x="619" y="1390" type="curve"/>
			<point x="655" y="1417" type="line"/>
			<point x="589" y="1555"/>
			<point x="525" y="1609"/>
			<point x="417" y="1609" type="curve" smooth="yes"/>
			<point x="230" y="1609"/>
			<point x="60" y="1403"/>
			<point x="60" y="1102" type="curve" smooth="yes"/>
			<point x="60" y="903"/>
			<point x="150" y="795"/>
		</contour>
		<contour>
			<point x="662" y="795" type="curve" smooth="yes"/>
			<point x="736" y="795"/>
			<point x="764" y="815"/>
			<point x="767" y="856" type="curve" smooth="yes"/>
			<point x="813" y="1488" type="line" smooth="yes"/>
			<point x="814" y="1502"/>
			<point x="817" y="1520"/>
			<point x="817" y="1549" type="curve" smooth="yes"/>
			<point x="817" y="1594"/>
			<point x="793" y="1609"/>
			<point x="721" y="1609" type="curve" smooth="yes"/>
			<point x="640" y="1609"/>
			<point x="619" y="1599"/>
			<point x="613" y="1520" type="curve" smooth="yes"/>
			<point x="570" y="922" type="line" smooth="yes"/>
			<point x="569" y="908"/>
			<point x="566" y="876"/>
			<point x="566" y="861" type="curve" smooth="yes"/>
			<point x="566" y="814"/>
			<point x="590" y="795"/>
		</contour>
	</outline>
</glyph>
<glyph name="paragraph" format="2">
	<unicode hex="00B6"/>
	<advance width="1279"/>
	<outline>
		<contour>
			<point x="786" y="1380" type="curve" smooth="yes"/>
			<point x="849" y="1380"/>
			<point x="950" y="1362"/>
			<point x="1010" y="1341" type="curve"/>
			<point x="1017" y="1555" type="line"/>
			<point x="944" y="1580"/>
			<point x="856" y="1594"/>
			<point x="780" y="1594" type="curve" smooth="yes"/>
			<point x="386" y="1594"/>
			<point x="130" y="1334"/>
			<point x="130" y="1019" type="curve" smooth="yes"/>
			<point x="130" y="685"/>
			<point x="379" y="480"/>
			<point x="762" y="471" type="curve" smooth="yes"/>
			<point x="834" y="471"/>
			<point x="908" y="481"/>
			<point x="945" y="490" type="curve"/>
			<point x="963" y="710" type="line"/>
			<point x="913" y="698"/>
			<point x="842" y="690"/>
			<point x="781" y="690" type="curve" smooth="yes"/>
			<point x="532" y="690"/>
			<point x="375" y="810"/>
			<point x="375" y="1016" type="curve" smooth="yes"/>
			<point x="375" y="1219"/>
			<point x="540" y="1380"/>
		</contour>
		<contour>
			<point x="699" y="-285" type="curve"/>
			<point x="615" y="-456" type="line"/>
			<point x="653" y="-485"/>
			<point x="721" y="-510"/>
			<point x="780" y="-510" type="curve" smooth="yes"/>
			<point x="943" y="-510"/>
			<point x="1049" y="-430"/>
			<point x="1068" y="-156" type="curve" smooth="yes"/>
			<point x="1186" y="1559" type="line" smooth="yes"/>
			<point x="1188" y="1582"/>
			<point x="1189" y="1598"/>
			<point x="1189" y="1607" type="curve" smooth="yes"/>
			<point x="1189" y="1648"/>
			<point x="1163" y="1665"/>
			<point x="1091" y="1665" type="curve" smooth="yes"/>
			<point x="1021" y="1665"/>
			<point x="979" y="1652"/>
			<point x="975" y="1600" type="curve" smooth="yes"/>
			<point x="857" y="-153" type="line" smooth="yes"/>
			<point x="850" y="-264"/>
			<point x="825" y="-294"/>
			<point x="767" y="-294" type="curve" smooth="yes"/>
			<point x="749" y="-294"/>
			<point x="717" y="-291"/>
		</contour>
		<contour>
			<point x="466" y="-510" type="curve" smooth="yes"/>
			<point x="678" y="-510"/>
			<point x="761" y="-405"/>
			<point x="777" y="-156" type="curve" smooth="yes"/>
			<point x="896" y="1523" type="line"/>
			<point x="684" y="1532" type="line"/>
			<point x="567" y="-118" type="line" smooth="yes"/>
			<point x="557" y="-257"/>
			<point x="529" y="-294"/>
			<point x="435" y="-294" type="curve" smooth="yes"/>
			<point x="380" y="-294"/>
			<point x="335" y="-273"/>
			<point x="284" y="-235" type="curve" smooth="yes"/>
			<point x="257" y="-215"/>
			<point x="243" y="-209"/>
			<point x="229" y="-209" type="curve" smooth="yes"/>
			<point x="179" y="-209"/>
			<point x="109" y="-273"/>
			<point x="109" y="-346" type="curve" smooth="yes"/>
			<point x="109" y="-362"/>
			<point x="118" y="-375"/>
			<point x="131" y="-388" type="curve" smooth="yes"/>
			<point x="194" y="-449"/>
			<point x="338" y="-510"/>
		</contour>
	</outline>
</glyph>
<glyph name="questiondown" format="2">
	<unicode hex="00BF"/>
	<advance width="1011"/>
	<outline>
		<contour>
			<point x="529" y="595" type="curve" smooth="yes"/>
			<point x="427" y="595"/>
			<point x="334" y="547"/>
			<point x="292" y="503" type="curve" smooth="yes"/>
			<point x="268" y="476"/>
			<point x="263" y="460"/>
			<point x="263" y="447" type="curve" smooth="yes"/>
			<point x="263" y="409"/>
			<point x="304" y="358"/>
			<point x="352" y="358" type="curve" smooth="yes"/>
			<point x="367" y="358"/>
			<point x="377" y="361"/>
			<point x="397" y="374" type="curve" smooth="yes"/>
			<point x="430" y="394"/>
			<point x="461" y="413"/>
			<point x="506" y="413" type="curve" smooth="yes"/>
			<point x="562" y="413"/>
			<point x="590" y="379"/>
			<point x="590" y="352" type="curve" smooth="yes"/>
			<point x="590" y="308"/>
			<point x="566" y="274"/>
			<point x="345" y="158" type="curve" smooth="yes"/>
			<point x="135" y="48"/>
			<point x="70" y="-46"/>
			<point x="70" y="-170" type="curve" smooth="yes"/>
			<point x="70" y="-315"/>
			<point x="189" y="-437"/>
			<point x="393" y="-437" type="curve" smooth="yes"/>
			<point x="519" y="-437"/>
			<point x="632" y="-406"/>
			<point x="739" y="-352" type="curve" smooth="yes"/>
			<point x="818" y="-308"/>
			<point x="841" y="-278"/>
			<point x="841" y="-244" type="curve" smooth="yes"/>
			<point x="841" y="-197"/>
			<point x="787" y="-136"/>
			<point x="750" y="-136" type="curve" smooth="yes"/>
			<point x="727" y="-136"/>
			<point x="717" y="-142"/>
			<point x="683" y="-158" type="curve" smooth="yes"/>
			<point x="572" y="-207"/>
			<point x="487" y="-228"/>
			<point x="408" y="-228" type="curve" smooth="yes"/>
			<point x="340" y="-228"/>
			<point x="300" y="-197"/>
			<point x="300" y="-157" type="curve" smooth="yes"/>
			<point x="300" y="-105"/>
			<point x="332" y="-79"/>
			<point x="540" y="30" type="curve" smooth="yes"/>
			<point x="739" y="134"/>
			<point x="800" y="234"/>
			<point x="800" y="344" type="curve" smooth="yes"/>
			<point x="800" y="479"/>
			<point x="701" y="595"/>
		</contour>
		<contour>
			<point x="582" y="1000" type="curve" smooth="yes"/>
			<point x="497" y="1000"/>
			<point x="421" y="930"/>
			<point x="421" y="836" type="curve" smooth="yes"/>
			<point x="421" y="745"/>
			<point x="475" y="686"/>
			<point x="560" y="686" type="curve" smooth="yes"/>
			<point x="645" y="686"/>
			<point x="720" y="757"/>
			<point x="720" y="852" type="curve" smooth="yes"/>
			<point x="720" y="941"/>
			<point x="667" y="1000"/>
		</contour>
	</outline>
</glyph>
<glyph name="AE" format="2">
	<unicode hex="00C6"/>
	<advance width="1846"/>
	<outline>
		<contour>
			<point x="1094" y="228" type="curve"/>
			<point x="1173" y="1360" type="line"/>
			<point x="1678" y="1360" type="line" smooth="yes"/>
			<point x="1743" y="1360"/>
			<point x="1781" y="1414"/>
			<point x="1781" y="1510" type="curve" smooth="yes"/>
			<point x="1781" y="1571"/>
			<point x="1751" y="1600"/>
			<point x="1695" y="1600" type="curve" smooth="yes"/>
			<point x="1005" y="1600" type="line" smooth="yes"/>
			<point x="884" y="1600"/>
			<point x="810" y="1559"/>
			<point x="741" y="1440" type="curve" smooth="yes"/>
			<point x="33" y="204" type="line" smooth="yes"/>
			<point x="10" y="164"/>
			<point x="0" y="145"/>
			<point x="0" y="112" type="curve" smooth="yes"/>
			<point x="0" y="48"/>
			<point x="67" y="-12"/>
			<point x="143" y="-12" type="curve" smooth="yes"/>
			<point x="191" y="-12"/>
			<point x="214" y="7"/>
			<point x="243" y="61" type="curve" smooth="yes"/>
			<point x="805" y="1099" type="line" smooth="yes"/>
			<point x="877" y="1231"/>
			<point x="910" y="1295"/>
			<point x="958" y="1400" type="curve"/>
			<point x="939" y="1400" type="line"/>
			<point x="924" y="1297"/>
			<point x="917" y="1200"/>
			<point x="908" y="1076" type="curve" smooth="yes"/>
			<point x="841" y="253" type="line" smooth="yes"/>
			<point x="838" y="214"/>
			<point x="836" y="194"/>
			<point x="836" y="166" type="curve" smooth="yes"/>
			<point x="836" y="50"/>
			<point x="898" y="-12"/>
			<point x="1025" y="-12" type="curve" smooth="yes"/>
			<point x="1132" y="-12"/>
			<point x="1549" y="-8"/>
			<point x="1650" y="-5" type="curve" smooth="yes"/>
			<point x="1720" y="-3"/>
			<point x="1743" y="55"/>
			<point x="1743" y="157" type="curve" smooth="yes"/>
			<point x="1743" y="201"/>
			<point x="1718" y="236"/>
			<point x="1661" y="236" type="curve" smooth="yes"/>
			<point x="1587" y="236"/>
			<point x="1275" y="231"/>
		</contour>
		<contour>
			<point x="511" y="856" type="curve"/>
			<point x="410" y="642" type="line"/>
			<point x="1574" y="660" type="line" smooth="yes"/>
			<point x="1635" y="661"/>
			<point x="1664" y="704"/>
			<point x="1664" y="801" type="curve" smooth="yes"/>
			<point x="1664" y="852"/>
			<point x="1645" y="900"/>
			<point x="1597" y="900" type="curve" smooth="yes"/>
			<point x="1491" y="900"/>
			<point x="690" y="868"/>
		</contour>
	</outline>
	<anchor name="top" x="1355" y="1600"/>
</glyph>
<glyph name="Thorn" format="2">
	<unicode hex="00DE"/>
	<advance width="1174"/>
	<outline>
		<contour>
			<point x="221" y="328" type="line"/>
			<point x="467" y="328" type="line" smooth="yes"/>
			<point x="881" y="328"/>
			<point x="1134" y="555"/>
			<point x="1134" y="880" type="curve" smooth="yes"/>
			<point x="1134" y="1164"/>
			<point x="942" y="1365"/>
			<point x="534" y="1365" type="curve" smooth="yes"/>
			<point x="455" y="1365"/>
			<point x="341" y="1358"/>
			<point x="288" y="1353" type="curve"/>
			<point x="290" y="1124" type="line"/>
			<point x="360" y="1130"/>
			<point x="463" y="1135"/>
			<point x="536" y="1135" type="curve" smooth="yes"/>
			<point x="758" y="1135"/>
			<point x="879" y="1023"/>
			<point x="879" y="862" type="curve" smooth="yes"/>
			<point x="879" y="688"/>
			<point x="737" y="547"/>
			<point x="479" y="548" type="curve" smooth="yes"/>
			<point x="234" y="549" type="line"/>
		</contour>
		<contour>
			<point x="199" y="-12" type="curve" smooth="yes"/>
			<point x="280" y="-12"/>
			<point x="326" y="2"/>
			<point x="330" y="66" type="curve" smooth="yes"/>
			<point x="426" y="1453" type="line" smooth="yes"/>
			<point x="428" y="1477"/>
			<point x="430" y="1498"/>
			<point x="430" y="1523" type="curve" smooth="yes"/>
			<point x="430" y="1583"/>
			<point x="395" y="1600"/>
			<point x="302" y="1600" type="curve" smooth="yes"/>
			<point x="219" y="1600"/>
			<point x="180" y="1572"/>
			<point x="175" y="1497" type="curve" smooth="yes"/>
			<point x="83" y="123" type="line" smooth="yes"/>
			<point x="81" y="99"/>
			<point x="80" y="82"/>
			<point x="80" y="71" type="curve" smooth="yes"/>
			<point x="78" y="7"/>
			<point x="107" y="-12"/>
		</contour>
	</outline>
	<anchor name="bottom" x="121" y="0"/>
	<anchor name="ogonek" x="87" y="0"/>
	<anchor name="top" x="232" y="1600"/>
	<anchor name="topleft" x="149" y="1600"/>
</glyph>
<glyph name="germandbls" format="2">
	<unicode hex="00DF"/>
	<advance width="1085"/>
	<outline>
		<contour>
			<point x="218" y="-12" type="curve" smooth="yes"/>
			<point x="289" y="-12"/>
			<point x="325" y="8"/>
			<point x="329" y="67" type="curve" smooth="yes"/>
			<point x="379" y="841" type="line" smooth="yes"/>
			<point x="398" y="1133"/>
			<point x="470" y="1235"/>
			<point x="621" y="1235" type="curve" smooth="yes"/>
			<point x="699" y="1235"/>
			<point x="743" y="1185"/>
			<point x="743" y="1124" type="curve" smooth="yes"/>
			<point x="743" y="1075"/>
			<point x="721" y="1028"/>
			<point x="660" y="985" type="curve" smooth="yes"/>
			<point x="509" y="879"/>
			<point x="465" y="789"/>
			<point x="465" y="692" type="curve" smooth="yes"/>
			<point x="465" y="560"/>
			<point x="560" y="499"/>
			<point x="645" y="449" type="curve" smooth="yes"/>
			<point x="780" y="369"/>
			<point x="805" y="334"/>
			<point x="805" y="300" type="curve" smooth="yes"/>
			<point x="805" y="244"/>
			<point x="728" y="211"/>
			<point x="506" y="194" type="curve" smooth="yes"/>
			<point x="431" y="188"/>
			<point x="418" y="152"/>
			<point x="418" y="96" type="curve" smooth="yes"/>
			<point x="418" y="15"/>
			<point x="447" y="-12"/>
			<point x="522" y="-12" type="curve" smooth="yes"/>
			<point x="543" y="-12"/>
			<point x="586" y="-10"/>
			<point x="641" y="-2" type="curve" smooth="yes"/>
			<point x="888" y="34"/>
			<point x="1030" y="148"/>
			<point x="1030" y="330" type="curve" smooth="yes"/>
			<point x="1030" y="440"/>
			<point x="985" y="499"/>
			<point x="852" y="588" type="curve" smooth="yes"/>
			<point x="717" y="678"/>
			<point x="685" y="705"/>
			<point x="685" y="751" type="curve" smooth="yes"/>
			<point x="685" y="796"/>
			<point x="713" y="833"/>
			<point x="784" y="882" type="curve" smooth="yes"/>
			<point x="913" y="971"/>
			<point x="963" y="1069"/>
			<point x="963" y="1170" type="curve" smooth="yes"/>
			<point x="963" y="1327"/>
			<point x="843" y="1425"/>
			<point x="647" y="1425" type="curve" smooth="yes"/>
			<point x="360" y="1425"/>
			<point x="184" y="1273"/>
			<point x="155" y="870" type="curve" smooth="yes"/>
			<point x="105" y="186" type="line" smooth="yes"/>
			<point x="101" y="138"/>
			<point x="100" y="108"/>
			<point x="100" y="88" type="curve" smooth="yes"/>
			<point x="100" y="12"/>
			<point x="116" y="-12"/>
		</contour>
	</outline>
</glyph>
<glyph name="ae" format="2">
	<unicode hex="00E6"/>
	<advance width="1601"/>
	<outline>
		<contour>
			<point x="335" y="-12" type="curve" smooth="yes"/>
			<point x="469" y="-12"/>
			<point x="603" y="100"/>
			<point x="734" y="414" type="curve"/>
			<point x="723" y="476" type="line"/>
			<point x="719" y="446"/>
			<point x="718" y="424"/>
			<point x="718" y="395" type="curve" smooth="yes"/>
			<point x="718" y="147"/>
			<point x="892" y="-12"/>
			<point x="1137" y="-12" type="curve" smooth="yes"/>
			<point x="1270" y="-12"/>
			<point x="1394" y="41"/>
			<point x="1469" y="119" type="curve" smooth="yes"/>
			<point x="1503" y="154"/>
			<point x="1518" y="187"/>
			<point x="1518" y="210" type="curve" smooth="yes"/>
			<point x="1518" y="253"/>
			<point x="1464" y="302"/>
			<point x="1430" y="302" type="curve" smooth="yes"/>
			<point x="1418" y="302"/>
			<point x="1402" y="300"/>
			<point x="1366" y="270" type="curve" smooth="yes"/>
			<point x="1306" y="219"/>
			<point x="1235" y="188"/>
			<point x="1155" y="188" type="curve" smooth="yes"/>
			<point x="1032" y="188"/>
			<point x="964" y="272"/>
			<point x="964" y="362" type="curve" smooth="yes"/>
			<point x="964" y="363"/>
			<point x="964" y="365"/>
			<point x="964" y="367" type="curve"/>
			<point x="1329" y="399"/>
			<point x="1526" y="539"/>
			<point x="1526" y="745" type="curve" smooth="yes"/>
			<point x="1526" y="895"/>
			<point x="1405" y="999"/>
			<point x="1257" y="999" type="curve" smooth="yes"/>
			<point x="1113" y="999"/>
			<point x="998" y="928"/>
			<point x="938" y="829" type="curve"/>
			<point x="967" y="777" type="line"/>
			<point x="981" y="847"/>
			<point x="990" y="909"/>
			<point x="990" y="932" type="curve" smooth="yes"/>
			<point x="990" y="984"/>
			<point x="959" y="1000"/>
			<point x="875" y="1000" type="curve" smooth="yes"/>
			<point x="779" y="1000"/>
			<point x="753" y="988"/>
			<point x="746" y="890" type="curve" smooth="yes"/>
			<point x="744" y="864" type="line"/>
			<point x="683" y="957"/>
			<point x="614" y="1000"/>
			<point x="510" y="1000" type="curve" smooth="yes"/>
			<point x="284" y="1000"/>
			<point x="80" y="744"/>
			<point x="80" y="368" type="curve" smooth="yes"/>
			<point x="80" y="121"/>
			<point x="188" y="-12"/>
		</contour>
		<contour>
			<point x="420" y="198" type="curve" smooth="yes"/>
			<point x="362" y="198"/>
			<point x="325" y="246"/>
			<point x="325" y="398" type="curve" smooth="yes"/>
			<point x="325" y="625"/>
			<point x="433" y="790"/>
			<point x="582" y="790" type="curve" smooth="yes"/>
			<point x="631" y="790"/>
			<point x="689" y="773"/>
			<point x="736" y="744" type="curve"/>
			<point x="735" y="734" type="line"/>
			<point x="653" y="406"/>
			<point x="522" y="198"/>
		</contour>
		<contour>
			<point x="964" y="513" type="curve"/>
			<point x="984" y="700"/>
			<point x="1078" y="829"/>
			<point x="1184" y="829" type="curve" smooth="yes"/>
			<point x="1248" y="829"/>
			<point x="1281" y="790"/>
			<point x="1281" y="715" type="curve" smooth="yes"/>
			<point x="1281" y="615"/>
			<point x="1189" y="538"/>
		</contour>
	</outline>
	<anchor name="bottom" x="643" y="0"/>
	<anchor name="top" x="872" y="985"/>
</glyph>
<glyph name="eth" format="2">
	<unicode hex="00F0"/>
	<advance width="1028"/>
	<outline>
		<contour>
			<point x="958" y="629" type="curve" smooth="yes"/>
			<point x="958" y="932"/>
			<point x="840" y="1181"/>
			<point x="708" y="1342" type="curve" smooth="yes"/>
			<point x="663" y="1396"/>
			<point x="637" y="1425"/>
			<point x="607" y="1425" type="curve" smooth="yes"/>
			<point x="558" y="1425"/>
			<point x="477" y="1365"/>
			<point x="477" y="1311" type="curve" smooth="yes"/>
			<point x="477" y="1287"/>
			<point x="487" y="1270"/>
			<point x="519" y="1229" type="curve" smooth="yes"/>
			<point x="643" y="1071"/>
			<point x="704" y="874"/>
			<point x="704" y="654" type="curve" smooth="yes"/>
			<point x="704" y="336"/>
			<point x="610" y="194"/>
			<point x="477" y="194" type="curve" smooth="yes"/>
			<point x="379" y="194"/>
			<point x="325" y="278"/>
			<point x="325" y="431" type="curve" smooth="yes"/>
			<point x="325" y="629"/>
			<point x="420" y="744"/>
			<point x="544" y="744" type="curve" smooth="yes"/>
			<point x="621" y="744"/>
			<point x="688" y="705"/>
			<point x="729" y="658" type="curve"/>
			<point x="773" y="727" type="line"/>
			<point x="707" y="875"/>
			<point x="607" y="950"/>
			<point x="480" y="950" type="curve" smooth="yes"/>
			<point x="298" y="950"/>
			<point x="80" y="784"/>
			<point x="80" y="430" type="curve" smooth="yes"/>
			<point x="80" y="143"/>
			<point x="231" y="-12"/>
			<point x="462" y="-12" type="curve" smooth="yes"/>
			<point x="746" y="-12"/>
			<point x="958" y="237"/>
		</contour>
		<contour>
			<point x="510" y="1009" type="curve" smooth="yes"/>
			<point x="896" y="1094" type="line" smooth="yes"/>
			<point x="973" y="1111"/>
			<point x="984" y="1127"/>
			<point x="984" y="1179" type="curve" smooth="yes"/>
			<point x="984" y="1239"/>
			<point x="954" y="1285"/>
			<point x="922" y="1285" type="curve" smooth="yes"/>
			<point x="910" y="1285"/>
			<point x="896" y="1283"/>
			<point x="860" y="1275" type="curve" smooth="yes"/>
			<point x="451" y="1184" type="line" smooth="yes"/>
			<point x="392" y="1171"/>
			<point x="392" y="1139"/>
			<point x="392" y="1113" type="curve" smooth="yes"/>
			<point x="392" y="1068"/>
			<point x="414" y="1000"/>
			<point x="450" y="1000" type="curve" smooth="yes"/>
			<point x="462" y="1000"/>
			<point x="482" y="1003"/>
		</contour>
	</outline>
</glyph>
<glyph name="oslash" format="2">
	<unicode hex="00F8"/>
	<advance width="1025"/>
	<outline>
		<contour>
			<point x="455" y="-12" type="curve" smooth="yes"/>
			<point x="731" y="-12"/>
			<point x="945" y="234"/>
			<point x="945" y="575" type="curve" smooth="yes"/>
			<point x="945" y="698"/>
			<point x="913" y="793"/>
			<point x="863" y="863" type="curve"/>
			<point x="876" y="882" type="line" smooth="yes"/>
			<point x="905" y="927"/>
			<point x="910" y="938"/>
			<point x="910" y="958" type="curve" smooth="yes"/>
			<point x="910" y="1003"/>
			<point x="858" y="1055"/>
			<point x="795" y="1055" type="curve" smooth="yes"/>
			<point x="774" y="1055"/>
			<point x="757" y="1043"/>
			<point x="733" y="1005" type="curve" smooth="yes"/>
			<point x="713" y="973" type="line"/>
			<point x="672" y="991"/>
			<point x="623" y="999"/>
			<point x="570" y="999" type="curve" smooth="yes"/>
			<point x="288" y="999"/>
			<point x="80" y="753"/>
			<point x="80" y="412" type="curve" smooth="yes"/>
			<point x="80" y="287"/>
			<point x="114" y="184"/>
			<point x="164" y="114" type="curve"/>
			<point x="124" y="58" type="line" smooth="yes"/>
			<point x="111" y="38"/>
			<point x="105" y="24"/>
			<point x="105" y="5" type="curve" smooth="yes"/>
			<point x="105" y="-47"/>
			<point x="163" y="-85"/>
			<point x="212" y="-85" type="curve" smooth="yes"/>
			<point x="249" y="-85"/>
			<point x="259" y="-76"/>
			<point x="279" y="-44" type="curve" smooth="yes"/>
			<point x="317" y="13" type="line"/>
			<point x="347" y="1"/>
			<point x="403" y="-12"/>
		</contour>
		<contour>
			<point x="475" y="193" type="curve" smooth="yes"/>
			<point x="455" y="193"/>
			<point x="428" y="195"/>
			<point x="420" y="196" type="curve"/>
			<point x="709" y="631" type="line"/>
			<point x="713" y="589"/>
			<point x="715" y="569"/>
			<point x="715" y="549" type="curve" smooth="yes"/>
			<point x="715" y="343"/>
			<point x="603" y="193"/>
		</contour>
		<contour>
			<point x="310" y="438" type="curve" smooth="yes"/>
			<point x="310" y="644"/>
			<point x="422" y="794"/>
			<point x="550" y="794" type="curve" smooth="yes"/>
			<point x="570" y="794"/>
			<point x="597" y="789"/>
			<point x="606" y="786" type="curve"/>
			<point x="315" y="346" type="line"/>
			<point x="312" y="388"/>
			<point x="310" y="412"/>
		</contour>
	</outline>
	<anchor name="bottom" x="467" y="0"/>
	<anchor name="center" x="513" y="485"/>
	<anchor name="ogonek" x="502" y="0"/>
	<anchor name="top" x="567" y="975"/>
	<anchor name="topright" x="945" y="975"/>
</glyph>
<glyph name="thorn" format="2">
	<unicode hex="00FE"/>
	<advance width="1090"/>
	<outline>
		<contour>
			<point x="84" y="-391" type="curve" smooth="yes"/>
			<point x="84" y="-448"/>
			<point x="112" y="-470"/>
			<point x="199" y="-470" type="curve" smooth="yes"/>
			<point x="280" y="-470"/>
			<point x="317" y="-449"/>
			<point x="321" y="-394" type="curve" smooth="yes"/>
			<point x="440" y="1279" type="line" smooth="yes"/>
			<point x="443" y="1317"/>
			<point x="444" y="1337"/>
			<point x="444" y="1352" type="curve" smooth="yes"/>
			<point x="444" y="1407"/>
			<point x="417" y="1425"/>
			<point x="333" y="1425" type="curve" smooth="yes"/>
			<point x="237" y="1425"/>
			<point x="211" y="1412"/>
			<point x="204" y="1315" type="curve" smooth="yes"/>
			<point x="90" y="-302" type="line" smooth="yes"/>
			<point x="88" y="-324"/>
			<point x="84" y="-371"/>
		</contour>
		<contour>
			<point x="352" y="257" type="curve"/>
			<point x="297" y="65" type="line"/>
			<point x="355" y="16"/>
			<point x="413" y="-12"/>
			<point x="496" y="-12" type="curve" smooth="yes"/>
			<point x="757" y="-12"/>
			<point x="1010" y="239"/>
			<point x="1010" y="630" type="curve" smooth="yes"/>
			<point x="1010" y="874"/>
			<point x="900" y="1000"/>
			<point x="746" y="1000" type="curve" smooth="yes"/>
			<point x="573" y="1000"/>
			<point x="431" y="871"/>
			<point x="295" y="507" type="curve"/>
			<point x="377" y="477" type="line"/>
			<point x="478" y="704"/>
			<point x="565" y="790"/>
			<point x="658" y="790" type="curve" smooth="yes"/>
			<point x="724" y="790"/>
			<point x="765" y="731"/>
			<point x="765" y="590" type="curve" smooth="yes"/>
			<point x="765" y="351"/>
			<point x="631" y="179"/>
			<point x="490" y="179" type="curve" smooth="yes"/>
			<point x="435" y="179"/>
			<point x="390" y="205"/>
		</contour>
	</outline>
</glyph>
<glyph name="aogonek" format="2">
	<unicode hex="0105"/>
	<advance width="1085"/>
	<outline>
		<contour>
			<point x="335" y="-12" type="curve" smooth="yes"/>
			<point x="503" y="-12"/>
			<point x="672" y="165"/>
			<point x="831" y="691" type="curve"/>
			<point x="736" y="736" type="line"/>
			<point x="654" y="407"/>
			<point x="522" y="198"/>
			<point x="420" y="198" type="curve" smooth="yes"/>
			<point x="362" y="198"/>
			<point x="325" y="246"/>
			<point x="325" y="398" type="curve" smooth="yes"/>
			<point x="325" y="625"/>
			<point x="433" y="790"/>
			<point x="582" y="790" type="curve" smooth="yes"/>
			<point x="637" y="790"/>
			<point x="703" y="768"/>
			<point x="753" y="733" type="curve"/>
			<point x="796" y="770" type="line"/>
			<point x="720" y="929"/>
			<point x="644" y="1000"/>
			<point x="510" y="1000" type="curve" smooth="yes"/>
			<point x="284" y="1000"/>
			<point x="80" y="744"/>
			<point x="80" y="368" type="curve" smooth="yes"/>
			<point x="80" y="121"/>
			<point x="188" y="-12"/>
		</contour>
		<contour>
			<point x="875" y="-17" type="curve" smooth="yes"/>
			<point x="917" y="21"/>
			<point x="929" y="39"/>
			<point x="932" y="89" type="curve" smooth="yes"/>
			<point x="986" y="854" type="line" smooth="yes"/>
			<point x="988" y="877"/>
			<point x="990" y="892"/>
			<point x="990" y="927" type="curve" smooth="yes"/>
			<point x="990" y="982"/>
			<point x="962" y="1000"/>
			<point x="875" y="1000" type="curve" smooth="yes"/>
			<point x="779" y="1000"/>
			<point x="753" y="987"/>
			<point x="746" y="890" type="curve" smooth="yes"/>
			<point x="695" y="146" type="line" smooth="yes"/>
			<point x="693" y="121"/>
			<point x="690" y="87"/>
			<point x="690" y="67" type="curve" smooth="yes"/>
			<point x="690" y="11"/>
			<point x="718" y="-12"/>
			<point x="805" y="-12" type="curve"/>
			<point x="805" y="72" type="line"/>
			<point x="638" y="-55"/>
			<point x="557" y="-176"/>
			<point x="557" y="-309" type="curve" smooth="yes"/>
			<point x="557" y="-413"/>
			<point x="632" y="-485"/>
			<point x="757" y="-485" type="curve" smooth="yes"/>
			<point x="838" y="-485"/>
			<point x="922" y="-445"/>
			<point x="970" y="-398" type="curve" smooth="yes"/>
			<point x="1006" y="-365"/>
			<point x="1011" y="-336"/>
			<point x="1011" y="-322" type="curve" smooth="yes"/>
			<point x="1011" y="-262"/>
			<point x="960" y="-223"/>
			<point x="918" y="-223" type="curve" smooth="yes"/>
			<point x="906" y="-223"/>
			<point x="896" y="-226"/>
			<point x="874" y="-241" type="curve" smooth="yes"/>
			<point x="847" y="-260"/>
			<point x="818" y="-274"/>
			<point x="791" y="-274" type="curve" smooth="yes"/>
			<point x="764" y="-274"/>
			<point x="749" y="-261"/>
			<point x="749" y="-226" type="curve" smooth="yes"/>
			<point x="749" y="-157"/>
			<point x="801" y="-85"/>
		</contour>
	</outline>
	<anchor name="bottom" x="355" y="0"/>
	<anchor name="top" x="600" y="985"/>
</glyph>
<glyph name="Eogonek" format="2">
	<unicode hex="0118"/>
	<advance width="1089"/>
	<outline>
		<contour>
			<point x="225" y="-12" type="curve" smooth="yes"/>
			<point x="335" y="-12"/>
			<point x="598" y="-10"/>
			<point x="770" y="-8" type="curve"/>
			<point x="770" y="9" type="line"/>
			<point x="651" y="-93"/>
			<point x="592" y="-196"/>
			<point x="592" y="-309" type="curve" smooth="yes"/>
			<point x="592" y="-413"/>
			<point x="667" y="-485"/>
			<point x="792" y="-485" type="curve" smooth="yes"/>
			<point x="873" y="-485"/>
			<point x="957" y="-445"/>
			<point x="1005" y="-398" type="curve" smooth="yes"/>
			<point x="1041" y="-365"/>
			<point x="1046" y="-336"/>
			<point x="1046" y="-322" type="curve" smooth="yes"/>
			<point x="1046" y="-262"/>
			<point x="995" y="-223"/>
			<point x="953" y="-223" type="curve" smooth="yes"/>
			<point x="941" y="-223"/>
			<point x="931" y="-226"/>
			<point x="909" y="-241" type="curve" smooth="yes"/>
			<point x="882" y="-260"/>
			<point x="853" y="-274"/>
			<point x="826" y="-274" type="curve" smooth="yes"/>
			<point x="799" y="-274"/>
			<point x="784" y="-261"/>
			<point x="784" y="-226" type="curve" smooth="yes"/>
			<point x="784" y="-157"/>
			<point x="835" y="-85"/>
			<point x="923" y="-5" type="curve" smooth="yes"/>
			<point x="976" y="43"/>
			<point x="986" y="72"/>
			<point x="986" y="157" type="curve" smooth="yes"/>
			<point x="986" y="201"/>
			<point x="961" y="236"/>
			<point x="904" y="236" type="curve" smooth="yes"/>
			<point x="830" y="236"/>
			<point x="457" y="232"/>
			<point x="336" y="228" type="curve"/>
			<point x="369" y="690" type="line"/>
			<point x="481" y="690"/>
			<point x="775" y="694"/>
			<point x="817" y="695" type="curve" smooth="yes"/>
			<point x="878" y="696"/>
			<point x="907" y="734"/>
			<point x="907" y="831" type="curve" smooth="yes"/>
			<point x="907" y="882"/>
			<point x="888" y="930"/>
			<point x="840" y="930" type="curve" smooth="yes"/>
			<point x="755" y="930"/>
			<point x="454" y="924"/>
			<point x="384" y="921" type="curve"/>
			<point x="412" y="1360" type="line"/>
			<point x="921" y="1360" type="line" smooth="yes"/>
			<point x="986" y="1360"/>
			<point x="1024" y="1414"/>
			<point x="1024" y="1510" type="curve" smooth="yes"/>
			<point x="1024" y="1571"/>
			<point x="994" y="1600"/>
			<point x="938" y="1600" type="curve" smooth="yes"/>
			<point x="297" y="1600" type="line" smooth="yes"/>
			<point x="215" y="1600"/>
			<point x="176" y="1572"/>
			<point x="171" y="1497" type="curve" smooth="yes"/>
			<point x="85" y="208" type="line" smooth="yes"/>
			<point x="82" y="168"/>
			<point x="80" y="136"/>
			<point x="80" y="119" type="curve" smooth="yes"/>
			<point x="80" y="36"/>
			<point x="135" y="-12"/>
		</contour>
	</outline>
	<anchor name="bottom" x="521" y="0"/>
	<anchor name="ogonek" x="882" y="0"/>
	<anchor name="top" x="597" y="1600"/>
	<anchor name="topleft" x="307" y="1600"/>
	<guideline x="990" y="269" angle="90"/>
</glyph>
<glyph name="Iogonek" format="2">
	<unicode hex="012E"/>
	<advance width="512"/>
	<outline>
		<contour>
			<point x="170" y="-485" type="curve" smooth="yes"/>
			<point x="251" y="-485"/>
			<point x="335" y="-445"/>
			<point x="383" y="-398" type="curve" smooth="yes"/>
			<point x="419" y="-365"/>
			<point x="424" y="-336"/>
			<point x="424" y="-322" type="curve" smooth="yes"/>
			<point x="424" y="-262"/>
			<point x="373" y="-223"/>
			<point x="331" y="-223" type="curve" smooth="yes"/>
			<point x="319" y="-223"/>
			<point x="309" y="-226"/>
			<point x="287" y="-241" type="curve" smooth="yes"/>
			<point x="260" y="-260"/>
			<point x="231" y="-274"/>
			<point x="204" y="-274" type="curve" smooth="yes"/>
			<point x="177" y="-274"/>
			<point x="162" y="-261"/>
			<point x="162" y="-226" type="curve" smooth="yes"/>
			<point x="162" y="-158"/>
			<point x="213" y="-86"/>
			<point x="300" y="-7" type="curve" smooth="yes"/>
			<point x="326" y="16"/>
			<point x="330" y="43"/>
			<point x="332" y="66" type="curve" smooth="yes"/>
			<point x="428" y="1453" type="line" smooth="yes"/>
			<point x="430" y="1477"/>
			<point x="432" y="1498"/>
			<point x="432" y="1523" type="curve" smooth="yes"/>
			<point x="432" y="1583"/>
			<point x="397" y="1600"/>
			<point x="304" y="1600" type="curve" smooth="yes"/>
			<point x="221" y="1600"/>
			<point x="182" y="1572"/>
			<point x="177" y="1497" type="curve" smooth="yes"/>
			<point x="85" y="123" type="line" smooth="yes"/>
			<point x="83" y="99"/>
			<point x="82" y="82"/>
			<point x="82" y="71" type="curve" smooth="yes"/>
			<point x="81" y="30"/>
			<point x="94" y="6"/>
			<point x="127" y="-4" type="curve"/>
			<point x="22" y="-104"/>
			<point x="-30" y="-203"/>
			<point x="-30" y="-309" type="curve" smooth="yes"/>
			<point x="-30" y="-413"/>
			<point x="45" y="-485"/>
		</contour>
	</outline>
	<guideline x="432" y="1523" angle="90"/>
</glyph>
<glyph name="Eng" format="2">
	<unicode hex="014A"/>
	<advance width="1360"/>
	<outline>
		<contour>
			<point x="748" y="-472" type="curve" smooth="yes"/>
			<point x="1001" y="-472"/>
			<point x="1153" y="-328"/>
			<point x="1174" y="-27" type="curve" smooth="yes"/>
			<point x="1276" y="1453" type="line" smooth="yes"/>
			<point x="1278" y="1477"/>
			<point x="1280" y="1498"/>
			<point x="1280" y="1523" type="curve" smooth="yes"/>
			<point x="1280" y="1583"/>
			<point x="1246" y="1600"/>
			<point x="1154" y="1600" type="curve" smooth="yes"/>
			<point x="1071" y="1600"/>
			<point x="1054" y="1581"/>
			<point x="1049" y="1510" type="curve" smooth="yes"/>
			<point x="991" y="614" type="line" smooth="yes"/>
			<point x="985" y="528"/>
			<point x="982" y="456"/>
			<point x="982" y="368" type="curve"/>
			<point x="999" y="371" type="line"/>
			<point x="981" y="447"/>
			<point x="948" y="530"/>
			<point x="870" y="683" type="curve" smooth="yes"/>
			<point x="439" y="1526" type="line" smooth="yes"/>
			<point x="402" y="1598"/>
			<point x="372" y="1600"/>
			<point x="302" y="1600" type="curve" smooth="yes"/>
			<point x="226" y="1600"/>
			<point x="180" y="1565"/>
			<point x="175" y="1497" type="curve" smooth="yes"/>
			<point x="83" y="123" type="line" smooth="yes"/>
			<point x="82" y="106"/>
			<point x="80" y="86"/>
			<point x="80" y="71" type="curve" smooth="yes"/>
			<point x="80" y="7"/>
			<point x="107" y="-12"/>
			<point x="196" y="-12" type="curve" smooth="yes"/>
			<point x="284" y="-12"/>
			<point x="303" y="5"/>
			<point x="307" y="67" type="curve" smooth="yes"/>
			<point x="368" y="967" type="line" smooth="yes"/>
			<point x="374" y="1060"/>
			<point x="378" y="1146"/>
			<point x="377" y="1197" type="curve"/>
			<point x="361" y="1194" type="line"/>
			<point x="378" y="1146"/>
			<point x="414" y="1058"/>
			<point x="481" y="930" type="curve" smooth="yes"/>
			<point x="953" y="28" type="line"/>
			<point x="950" y="-8" type="line" smooth="yes"/>
			<point x="937" y="-167"/>
			<point x="865" y="-241"/>
			<point x="763" y="-241" type="curve" smooth="yes"/>
			<point x="697" y="-241"/>
			<point x="650" y="-227"/>
			<point x="589" y="-202" type="curve" smooth="yes"/>
			<point x="561" y="-191"/>
			<point x="545" y="-183"/>
			<point x="525" y="-183" type="curve" smooth="yes"/>
			<point x="473" y="-183"/>
			<point x="429" y="-266"/>
			<point x="429" y="-333" type="curve" smooth="yes"/>
			<point x="429" y="-375"/>
			<point x="452" y="-393"/>
			<point x="486" y="-412" type="curve" smooth="yes"/>
			<point x="558" y="-452"/>
			<point x="660" y="-472"/>
		</contour>
	</outline>
	<anchor name="bottom" x="618" y="0"/>
	<anchor name="top" x="750" y="1600"/>
</glyph>
<glyph name="oe" format="2">
	<unicode hex="0153"/>
	<advance width="1582"/>
	<outline>
		<contour>
			<point x="455" y="-12" type="curve" smooth="yes"/>
			<point x="587" y="-12"/>
			<point x="703" y="42"/>
			<point x="786" y="164" type="curve"/>
			<point x="859" y="41"/>
			<point x="974" y="-12"/>
			<point x="1118" y="-12" type="curve" smooth="yes"/>
			<point x="1251" y="-12"/>
			<point x="1375" y="41"/>
			<point x="1450" y="119" type="curve" smooth="yes"/>
			<point x="1484" y="154"/>
			<point x="1499" y="187"/>
			<point x="1499" y="210" type="curve" smooth="yes"/>
			<point x="1499" y="253"/>
			<point x="1445" y="302"/>
			<point x="1411" y="302" type="curve" smooth="yes"/>
			<point x="1399" y="302"/>
			<point x="1383" y="300"/>
			<point x="1347" y="270" type="curve" smooth="yes"/>
			<point x="1287" y="219"/>
			<point x="1216" y="188"/>
			<point x="1136" y="188" type="curve" smooth="yes"/>
			<point x="1013" y="188"/>
			<point x="945" y="272"/>
			<point x="945" y="362" type="curve" smooth="yes"/>
			<point x="945" y="364"/>
			<point x="945" y="365"/>
			<point x="945" y="367" type="curve"/>
			<point x="1310" y="399"/>
			<point x="1507" y="539"/>
			<point x="1507" y="745" type="curve" smooth="yes"/>
			<point x="1507" y="895"/>
			<point x="1386" y="999"/>
			<point x="1206" y="999" type="curve" smooth="yes"/>
			<point x="1071" y="999"/>
			<point x="946" y="941"/>
			<point x="860" y="842" type="curve"/>
			<point x="804" y="945"/>
			<point x="701" y="999"/>
			<point x="570" y="999" type="curve" smooth="yes"/>
			<point x="288" y="999"/>
			<point x="80" y="753"/>
			<point x="80" y="412" type="curve" smooth="yes"/>
			<point x="80" y="137"/>
			<point x="220" y="-12"/>
		</contour>
		<contour>
			<point x="475" y="193" type="curve" smooth="yes"/>
			<point x="385" y="193"/>
			<point x="325" y="263"/>
			<point x="325" y="438" type="curve" smooth="yes"/>
			<point x="325" y="644"/>
			<point x="430" y="794"/>
			<point x="550" y="794" type="curve" smooth="yes"/>
			<point x="640" y="794"/>
			<point x="700" y="724"/>
			<point x="700" y="549" type="curve" smooth="yes"/>
			<point x="700" y="343"/>
			<point x="595" y="193"/>
		</contour>
		<contour>
			<point x="945" y="513" type="curve"/>
			<point x="965" y="700"/>
			<point x="1059" y="829"/>
			<point x="1165" y="829" type="curve" smooth="yes"/>
			<point x="1229" y="829"/>
			<point x="1262" y="790"/>
			<point x="1262" y="715" type="curve" smooth="yes"/>
			<point x="1262" y="615"/>
			<point x="1170" y="538"/>
		</contour>
	</outline>
	<anchor name="bottom" x="791" y="0"/>
	<anchor name="top" x="888" y="985"/>
</glyph>
<glyph name="Schwa" format="2">
	<unicode hex="018F"/>
	<advance width="1304"/>
	<outline>
		<contour>
			<point x="695" y="1625" type="curve" smooth="yes"/>
			<point x="550" y="1625"/>
			<point x="402" y="1582"/>
			<point x="291" y="1506" type="curve" smooth="yes"/>
			<point x="221" y="1458"/>
			<point x="206" y="1426"/>
			<point x="206" y="1394" type="curve" smooth="yes"/>
			<point x="206" y="1335"/>
			<point x="258" y="1271"/>
			<point x="328" y="1271" type="curve" smooth="yes"/>
			<point x="359" y="1271"/>
			<point x="378" y="1283"/>
			<point x="411" y="1300" type="curve" smooth="yes"/>
			<point x="479" y="1335"/>
			<point x="571" y="1380"/>
			<point x="677" y="1380" type="curve" smooth="yes"/>
			<point x="866" y="1380"/>
			<point x="954" y="1227"/>
			<point x="954" y="944" type="curve" smooth="yes"/>
			<point x="954" y="514"/>
			<point x="749" y="233"/>
			<point x="522" y="233" type="curve" smooth="yes"/>
			<point x="415" y="233"/>
			<point x="345" y="295"/>
			<point x="345" y="407" type="curve" smooth="yes"/>
			<point x="345" y="619"/>
			<point x="590" y="780"/>
			<point x="1045" y="780" type="curve" smooth="yes"/>
			<point x="1072" y="780"/>
			<point x="1089" y="811"/>
			<point x="1089" y="870" type="curve" smooth="yes"/>
			<point x="1089" y="952"/>
			<point x="1055" y="996"/>
			<point x="1017" y="996" type="curve" smooth="yes"/>
			<point x="416" y="996"/>
			<point x="90" y="734"/>
			<point x="90" y="388" type="curve" smooth="yes"/>
			<point x="90" y="140"/>
			<point x="261" y="-12"/>
			<point x="503" y="-12" type="curve" smooth="yes"/>
			<point x="878" y="-12"/>
			<point x="1214" y="366"/>
			<point x="1214" y="952" type="curve" smooth="yes"/>
			<point x="1214" y="1372"/>
			<point x="1042" y="1625"/>
		</contour>
	</outline>
</glyph>
<glyph name="jdotless" format="2">
	<unicode hex="0237"/>
	<advance width="495"/>
	<outline>
		<contour>
			<point x="35" y="-470" type="curve" smooth="yes"/>
			<point x="180" y="-470"/>
			<point x="311" y="-376"/>
			<point x="327" y="-146" type="curve" smooth="yes"/>
			<point x="396" y="854" type="line" smooth="yes"/>
			<point x="399" y="895"/>
			<point x="400" y="911"/>
			<point x="400" y="927" type="curve" smooth="yes"/>
			<point x="400" y="982"/>
			<point x="372" y="1000"/>
			<point x="285" y="1000" type="curve" smooth="yes"/>
			<point x="189" y="1000"/>
			<point x="163" y="987"/>
			<point x="156" y="890" type="curve" smooth="yes"/>
			<point x="88" y="-119" type="line" smooth="yes"/>
			<point x="81" y="-225"/>
			<point x="53" y="-260"/>
			<point x="10" y="-260" type="curve" smooth="yes"/>
			<point x="-23" y="-260"/>
			<point x="-52" y="-245"/>
			<point x="-99" y="-210" type="curve" smooth="yes"/>
			<point x="-127" y="-189"/>
			<point x="-138" y="-181"/>
			<point x="-160" y="-181" type="curve" smooth="yes"/>
			<point x="-200" y="-181"/>
			<point x="-256" y="-244"/>
			<point x="-256" y="-300" type="curve" smooth="yes"/>
			<point x="-256" y="-358"/>
			<point x="-110" y="-470"/>
		</contour>
	</outline>
	<anchor name="top" x="285" y="985"/>
</glyph>
<glyph name="acutecomb" format="2">
	<unicode hex="0301"/>
	<outline>
		<contour>
			<point x="117" y="1085" type="curve" smooth="yes"/>
			<point x="157" y="1085"/>
			<point x="220" y="1118"/>
			<point x="311" y="1217" type="curve" smooth="yes"/>
			<point x="405" y="1320"/>
			<point x="432" y="1386"/>
			<point x="432" y="1427" type="curve" smooth="yes"/>
			<point x="432" y="1477"/>
			<point x="365" y="1521"/>
			<point x="305" y="1521" type="curve" smooth="yes"/>
			<point x="265" y="1521"/>
			<point x="248" y="1514"/>
			<point x="198" y="1418" type="curve" smooth="yes"/>
			<point x="157" y="1340"/>
			<point x="128" y="1294"/>
			<point x="100" y="1248" type="curve" smooth="yes"/>
			<point x="70" y="1199"/>
			<point x="50" y="1170"/>
			<point x="50" y="1150" type="curve" smooth="yes"/>
			<point x="50" y="1115"/>
			<point x="83" y="1085"/>
		</contour>
	</outline>
	<anchor name="_top" x="120" y="985"/>
	<anchor name="top" x="227" y="1521"/>
</glyph>
<glyph name="circumflexcomb" format="2">
	<unicode hex="0302"/>
	<outline>
		<contour>
			<point x="143" y="1085" type="curve" smooth="yes"/>
			<point x="172" y="1085"/>
			<point x="196" y="1096"/>
			<point x="226" y="1131" type="curve" smooth="yes"/>
			<point x="406" y="1341" type="line"/>
			<point x="355" y="1357" type="line"/>
			<point x="463" y="1167" type="line" smooth="yes"/>
			<point x="500" y="1101"/>
			<point x="522" y="1085"/>
			<point x="558" y="1085" type="curve" smooth="yes"/>
			<point x="611" y="1085"/>
			<point x="658" y="1131"/>
			<point x="658" y="1174" type="curve" smooth="yes"/>
			<point x="658" y="1196"/>
			<point x="650" y="1214"/>
			<point x="624" y="1253" type="curve" smooth="yes"/>
			<point x="500" y="1441" type="line" smooth="yes"/>
			<point x="464" y="1496"/>
			<point x="439" y="1514"/>
			<point x="391" y="1514" type="curve" smooth="yes"/>
			<point x="355" y="1514"/>
			<point x="332" y="1507"/>
			<point x="278" y="1451" type="curve" smooth="yes"/>
			<point x="102" y="1268" type="line" smooth="yes"/>
			<point x="63" y="1230"/>
			<point x="50" y="1207"/>
			<point x="50" y="1174" type="curve" smooth="yes"/>
			<point x="50" y="1125"/>
			<point x="99" y="1085"/>
		</contour>
	</outline>
	<anchor name="_top" x="333" y="985"/>
	<anchor name="top" x="391" y="1514"/>
</glyph>
<glyph name="brevecomb" format="2">
	<unicode hex="0306"/>
	<outline>
		<contour>
			<point x="293" y="1085" type="curve" smooth="yes"/>
			<point x="417" y="1085"/>
			<point x="520" y="1148"/>
			<point x="582" y="1301" type="curve" smooth="yes"/>
			<point x="610" y="1370"/>
			<point x="614" y="1394"/>
			<point x="614" y="1413" type="curve" smooth="yes"/>
			<point x="614" y="1447"/>
			<point x="573" y="1477"/>
			<point x="530" y="1477" type="curve" smooth="yes"/>
			<point x="507" y="1477"/>
			<point x="484" y="1467"/>
			<point x="454" y="1405" type="curve" smooth="yes"/>
			<point x="397" y="1287"/>
			<point x="357" y="1255"/>
			<point x="301" y="1255" type="curve" smooth="yes"/>
			<point x="241" y="1255"/>
			<point x="210" y="1288"/>
			<point x="200" y="1394" type="curve" smooth="yes"/>
			<point x="195" y="1447"/>
			<point x="172" y="1466"/>
			<point x="133" y="1466" type="curve" smooth="yes"/>
			<point x="77" y="1466"/>
			<point x="50" y="1434"/>
			<point x="50" y="1365" type="curve" smooth="yes"/>
			<point x="50" y="1236"/>
			<point x="117" y="1085"/>
		</contour>
	</outline>
	<anchor name="_top" x="285" y="985"/>
	<anchor name="top" x="343" y="1466"/>
</glyph>
<glyph name="dotaccentcomb" format="2">
	<unicode hex="0307"/>
	<outline>
		<contour>
			<point x="180" y="1155" type="curve" smooth="yes"/>
			<point x="271" y="1155"/>
			<point x="339" y="1223"/>
			<point x="339" y="1316" type="curve" smooth="yes"/>
			<point x="339" y="1384"/>
			<point x="281" y="1442"/>
			<point x="211" y="1442" type="curve" smooth="yes"/>
			<point x="118" y="1442"/>
			<point x="50" y="1375"/>
			<point x="50" y="1283" type="curve" smooth="yes"/>
			<point x="50" y="1213"/>
			<point x="108" y="1155"/>
		</contour>
	</outline>
	<anchor name="_top" x="172" y="985"/>
	<anchor name="top" x="211" y="1442"/>
</glyph>
<glyph name="ringcomb" format="2">
	<unicode hex="030A"/>
	<outline>
		<contour>
			<point x="255" y="1085" type="curve" smooth="yes"/>
			<point x="388" y="1085"/>
			<point x="493" y="1189"/>
			<point x="493" y="1314" type="curve" smooth="yes"/>
			<point x="493" y="1427"/>
			<point x="406" y="1507"/>
			<point x="290" y="1507" type="curve" smooth="yes"/>
			<point x="158" y="1507"/>
			<point x="50" y="1403"/>
			<point x="50" y="1278" type="curve" smooth="yes"/>
			<point x="50" y="1165"/>
			<point x="140" y="1085"/>
		</contour>
		<contour>
			<point x="261" y="1217" type="curve" smooth="yes"/>
			<point x="220" y="1217"/>
			<point x="190" y="1239"/>
			<point x="190" y="1287" type="curve" smooth="yes"/>
			<point x="190" y="1339"/>
			<point x="228" y="1375"/>
			<point x="282" y="1375" type="curve" smooth="yes"/>
			<point x="328" y="1375"/>
			<point x="353" y="1350"/>
			<point x="353" y="1307" type="curve" smooth="yes"/>
			<point x="353" y="1254"/>
			<point x="315" y="1217"/>
		</contour>
	</outline>
	<anchor name="_top" x="251" y="985"/>
	<anchor name="top" x="290" y="1507"/>
</glyph>
<glyph name="commaaccentcomb" format="2">
	<unicode hex="0326"/>
	<outline>
		<contour>
			<point x="141" y="-566" type="curve" smooth="yes"/>
			<point x="168" y="-566"/>
			<point x="193" y="-556"/>
			<point x="226" y="-512" type="curve" smooth="yes"/>
			<point x="283" y="-437"/>
			<point x="324" y="-320"/>
			<point x="324" y="-229" type="curve" smooth="yes"/>
			<point x="324" y="-170"/>
			<point x="267" y="-142"/>
			<point x="197" y="-142" type="curve" smooth="yes"/>
			<point x="140" y="-142"/>
			<point x="111" y="-166"/>
			<point x="105" y="-237" type="curve" smooth="yes"/>
			<point x="100" y="-306"/>
			<point x="90" y="-365"/>
			<point x="63" y="-443" type="curve" smooth="yes"/>
			<point x="54" y="-468"/>
			<point x="50" y="-480"/>
			<point x="50" y="-500" type="curve" smooth="yes"/>
			<point x="50" y="-537"/>
			<point x="103" y="-566"/>
		</contour>
	</outline>
	<anchor name="_bottom" x="240" y="0"/>
	<anchor name="bottom" x="160" y="-566"/>
</glyph>
<glyph name="Germandbls" format="2">
	<unicode hex="1E9E"/>
	<advance width="1377"/>
	<outline>
		<contour>
			<point x="220" y="-12" type="curve" smooth="yes"/>
			<point x="299" y="-12"/>
			<point x="346" y="2"/>
			<point x="350" y="66" type="curve" smooth="yes"/>
			<point x="439" y="1379" type="line"/>
			<point x="899" y="1379" type="line"/>
			<point x="667" y="1209"/>
			<point x="593" y="1088"/>
			<point x="593" y="943" type="curve" smooth="yes"/>
			<point x="593" y="759"/>
			<point x="712" y="673"/>
			<point x="825" y="581" type="curve" smooth="yes"/>
			<point x="912" y="510"/>
			<point x="997" y="441"/>
			<point x="997" y="345" type="curve" smooth="yes"/>
			<point x="997" y="267"/>
			<point x="941" y="213"/>
			<point x="825" y="213" type="curve" smooth="yes"/>
			<point x="739" y="213"/>
			<point x="644" y="243"/>
			<point x="598" y="260" type="curve" smooth="yes"/>
			<point x="582" y="266"/>
			<point x="562" y="274"/>
			<point x="544" y="274" type="curve" smooth="yes"/>
			<point x="496" y="274"/>
			<point x="452" y="215"/>
			<point x="452" y="147" type="curve" smooth="yes"/>
			<point x="452" y="107"/>
			<point x="467" y="86"/>
			<point x="520" y="57" type="curve" smooth="yes"/>
			<point x="600" y="13"/>
			<point x="707" y="-17"/>
			<point x="824" y="-17" type="curve" smooth="yes"/>
			<point x="1076" y="-17"/>
			<point x="1237" y="123"/>
			<point x="1237" y="358" type="curve" smooth="yes"/>
			<point x="1237" y="539"/>
			<point x="1141" y="636"/>
			<point x="989" y="762" type="curve" smooth="yes"/>
			<point x="895" y="840"/>
			<point x="828" y="890"/>
			<point x="828" y="976" type="curve" smooth="yes"/>
			<point x="828" y="1074"/>
			<point x="914" y="1137"/>
			<point x="1075" y="1273" type="curve" smooth="yes"/>
			<point x="1133" y="1322"/>
			<point x="1178" y="1361"/>
			<point x="1178" y="1438" type="curve" smooth="yes"/>
			<point x="1178" y="1536"/>
			<point x="1105" y="1600"/>
			<point x="980" y="1600" type="curve" smooth="yes"/>
			<point x="321" y="1600" type="line" smooth="yes"/>
			<point x="239" y="1600"/>
			<point x="200" y="1572"/>
			<point x="195" y="1497" type="curve" smooth="yes"/>
			<point x="103" y="123" type="line" smooth="yes"/>
			<point x="101" y="93"/>
			<point x="100" y="78"/>
			<point x="100" y="67" type="curve" smooth="yes"/>
			<point x="100" y="7"/>
			<point x="129" y="-12"/>
		</contour>
	</outline>
</glyph>
<glyph name="quoteright" format="2">
	<unicode hex="2019"/>
	<advance width="541"/>
	<outline>
		<contour>
			<point x="250" y="1117" type="curve" smooth="yes"/>
			<point x="275" y="1117"/>
			<point x="304" y="1129"/>
			<point x="349" y="1174" type="curve" smooth="yes"/>
			<point x="440" y="1266"/>
			<point x="491" y="1377"/>
			<point x="491" y="1519" type="curve" smooth="yes"/>
			<point x="491" y="1628"/>
			<point x="450" y="1717"/>
			<point x="376" y="1717" type="curve" smooth="yes"/>
			<point x="312" y="1717"/>
			<point x="256" y="1673"/>
			<point x="256" y="1632" type="curve" smooth="yes"/>
			<point x="256" y="1619"/>
			<point x="258" y="1604"/>
			<point x="262" y="1588" type="curve" smooth="yes"/>
			<point x="268" y="1564"/>
			<point x="279" y="1514"/>
			<point x="279" y="1467" type="curve" smooth="yes"/>
			<point x="279" y="1398"/>
			<point x="256" y="1324"/>
			<point x="193" y="1261" type="curve" smooth="yes"/>
			<point x="172" y="1240"/>
			<point x="160" y="1218"/>
			<point x="160" y="1198" type="curve" smooth="yes"/>
			<point x="160" y="1153"/>
			<point x="196" y="1117"/>
		</contour>
	</outline>
</glyph>
<glyph name="quotesinglbase" format="2">
	<unicode hex="201A"/>
	<advance width="541"/>
	<outline>
		<contour>
			<point x="140" y="-338" type="curve" smooth="yes"/>
			<point x="165" y="-338"/>
			<point x="194" y="-326"/>
			<point x="239" y="-281" type="curve" smooth="yes"/>
			<point x="330" y="-189"/>
			<point x="381" y="-78"/>
			<point x="381" y="64" type="curve" smooth="yes"/>
			<point x="381" y="173"/>
			<point x="340" y="262"/>
			<point x="266" y="262" type="curve" smooth="yes"/>
			<point x="202" y="262"/>
			<point x="146" y="218"/>
			<point x="146" y="177" type="curve" smooth="yes"/>
			<point x="146" y="164"/>
			<point x="148" y="149"/>
			<point x="152" y="133" type="curve" smooth="yes"/>
			<point x="158" y="109"/>
			<point x="169" y="59"/>
			<point x="169" y="12" type="curve" smooth="yes"/>
			<point x="169" y="-57"/>
			<point x="146" y="-131"/>
			<point x="83" y="-194" type="curve" smooth="yes"/>
			<point x="62" y="-215"/>
			<point x="50" y="-237"/>
			<point x="50" y="-257" type="curve" smooth="yes"/>
			<point x="50" y="-302"/>
			<point x="86" y="-338"/>
		</contour>
	</outline>
</glyph>
<glyph name="guilsinglright" format="2">
	<unicode hex="203A"/>
	<advance width="751"/>
	<outline>
		<contour>
			<point x="222" y="112" type="curve" smooth="yes"/>
			<point x="243" y="112"/>
			<point x="263" y="118"/>
			<point x="300" y="154" type="curve" smooth="yes"/>
			<point x="403" y="255"/>
			<point x="498" y="341"/>
			<point x="568" y="403" type="curve" smooth="yes"/>
			<point x="619" y="449"/>
			<point x="633" y="482"/>
			<point x="633" y="526" type="curve" smooth="yes"/>
			<point x="633" y="566"/>
			<point x="611" y="599"/>
			<point x="584" y="631" type="curve" smooth="yes"/>
			<point x="535" y="689"/>
			<point x="447" y="794"/>
			<point x="403" y="844" type="curve" smooth="yes"/>
			<point x="359" y="895"/>
			<point x="339" y="914"/>
			<point x="304" y="914" type="curve" smooth="yes"/>
			<point x="246" y="914"/>
			<point x="192" y="852"/>
			<point x="192" y="805" type="curve" smooth="yes"/>
			<point x="192" y="780"/>
			<point x="204" y="759"/>
			<point x="242" y="720" type="curve" smooth="yes"/>
			<point x="283" y="678"/>
			<point x="415" y="552"/>
			<point x="476" y="505" type="curve"/>
			<point x="476" y="536" type="line"/>
			<point x="411" y="497"/>
			<point x="237" y="370"/>
			<point x="169" y="301" type="curve" smooth="yes"/>
			<point x="128" y="260"/>
			<point x="120" y="235"/>
			<point x="120" y="211" type="curve" smooth="yes"/>
			<point x="120" y="165"/>
			<point x="174" y="112"/>
		</contour>
	</outline>
</glyph>
<glyph name="fraction" format="2">
	<unicode hex="2044"/>
	<advance width="413"/>
	<outline>
		<contour>
			<point x="-191" y="-85" type="curve" smooth="yes"/>
			<point x="-157" y="-85"/>
			<point x="-134" y="-68"/>
			<point x="-102" y="-12" type="curve" smooth="yes"/>
			<point x="670" y="1331" type="line" smooth="yes"/>
			<point x="710" y="1400"/>
			<point x="713" y="1417"/>
			<point x="713" y="1437" type="curve" smooth="yes"/>
			<point x="713" y="1478"/>
			<point x="668" y="1524"/>
			<point x="604" y="1524" type="curve" smooth="yes"/>
			<point x="570" y="1524"/>
			<point x="547" y="1507"/>
			<point x="515" y="1451" type="curve" smooth="yes"/>
			<point x="-257" y="108" type="line" smooth="yes"/>
			<point x="-297" y="39"/>
			<point x="-300" y="33"/>
			<point x="-300" y="2" type="curve" smooth="yes"/>
			<point x="-300" y="-40"/>
			<point x="-249" y="-85"/>
		</contour>
	</outline>
</glyph>
<glyph name="fivesuperior" format="2">
	<unicode hex="2075"/>
	<advance width="797"/>
	<outline>
		<contour>
			<point x="374" y="985" type="curve" smooth="yes"/>
			<point x="588" y="985"/>
			<point x="737" y="1105"/>
			<point x="737" y="1299" type="curve" smooth="yes"/>
			<point x="737" y="1450"/>
			<point x="647" y="1529"/>
			<point x="508" y="1529" type="curve" smooth="yes"/>
			<point x="440" y="1529"/>
			<point x="362" y="1510"/>
			<point x="279" y="1467" type="curve"/>
			<point x="297" y="1458" type="line"/>
			<point x="315" y="1638" type="line"/>
			<point x="651" y="1638" type="line" smooth="yes"/>
			<point x="704" y="1638"/>
			<point x="728" y="1676"/>
			<point x="728" y="1734" type="curve" smooth="yes"/>
			<point x="728" y="1801"/>
			<point x="705" y="1828"/>
			<point x="659" y="1828" type="curve" smooth="yes"/>
			<point x="233" y="1828" type="line" smooth="yes"/>
			<point x="182" y="1828"/>
			<point x="152" y="1815"/>
			<point x="146" y="1749" type="curve" smooth="yes"/>
			<point x="125" y="1527" type="line" smooth="yes"/>
			<point x="123" y="1508"/>
			<point x="121" y="1485"/>
			<point x="121" y="1452" type="curve" smooth="yes"/>
			<point x="121" y="1375"/>
			<point x="186" y="1336"/>
			<point x="264" y="1336" type="curve" smooth="yes"/>
			<point x="303" y="1336"/>
			<point x="333" y="1344"/>
			<point x="376" y="1354" type="curve" smooth="yes"/>
			<point x="409" y="1362"/>
			<point x="432" y="1369"/>
			<point x="466" y="1369" type="curve" smooth="yes"/>
			<point x="512" y="1369"/>
			<point x="537" y="1339"/>
			<point x="537" y="1288" type="curve" smooth="yes"/>
			<point x="537" y="1221"/>
			<point x="475" y="1170"/>
			<point x="373" y="1170" type="curve" smooth="yes"/>
			<point x="297" y="1170"/>
			<point x="244" y="1186"/>
			<point x="194" y="1200" type="curve" smooth="yes"/>
			<point x="168" y="1207"/>
			<point x="156" y="1210"/>
			<point x="139" y="1210" type="curve" smooth="yes"/>
			<point x="98" y="1210"/>
			<point x="60" y="1149"/>
			<point x="60" y="1096" type="curve" smooth="yes"/>
			<point x="60" y="1072"/>
			<point x="78" y="1048"/>
			<point x="130" y="1028" type="curve" smooth="yes"/>
			<point x="191" y="1004"/>
			<point x="291" y="985"/>
		</contour>
	</outline>
</glyph>
<glyph name="sevensuperior" format="2">
	<unicode hex="2077"/>
	<advance width="727"/>
	<outline>
		<contour>
			<point x="545" y="1666" type="line"/>
			<point x="427" y="1532"/>
			<point x="277" y="1314"/>
			<point x="204" y="1181" type="curve" smooth="yes"/>
			<point x="168" y="1114"/>
			<point x="162" y="1094"/>
			<point x="162" y="1071" type="curve" smooth="yes"/>
			<point x="162" y="1030"/>
			<point x="223" y="985"/>
			<point x="287" y="985" type="curve" smooth="yes"/>
			<point x="326" y="985"/>
			<point x="348" y="1000"/>
			<point x="381" y="1075" type="curve" smooth="yes"/>
			<point x="469" y="1274"/>
			<point x="558" y="1438"/>
			<point x="673" y="1614" type="curve" smooth="yes"/>
			<point x="712" y="1674"/>
			<point x="727" y="1704"/>
			<point x="727" y="1737" type="curve" smooth="yes"/>
			<point x="727" y="1790"/>
			<point x="698" y="1828"/>
			<point x="641" y="1828" type="curve" smooth="yes"/>
			<point x="146" y="1828" type="line" smooth="yes"/>
			<point x="79" y="1828"/>
			<point x="50" y="1781"/>
			<point x="50" y="1721" type="curve" smooth="yes"/>
			<point x="50" y="1666"/>
			<point x="76" y="1638"/>
			<point x="145" y="1638" type="curve" smooth="yes"/>
			<point x="567" y="1638" type="line"/>
		</contour>
	</outline>
</glyph>
<glyph name="ninesuperior" format="2">
	<unicode hex="2079"/>
	<advance width="806"/>
	<outline>
		<contour>
			<point x="605" y="1424" type="curve"/>
			<point x="547" y="1486" type="line"/>
			<point x="513" y="1449"/>
			<point x="463" y="1425"/>
			<point x="397" y="1425" type="curve" smooth="yes"/>
			<point x="320" y="1425"/>
			<point x="266" y="1475"/>
			<point x="266" y="1540" type="curve" smooth="yes"/>
			<point x="266" y="1616"/>
			<point x="323" y="1668"/>
			<point x="403" y="1668" type="curve" smooth="yes"/>
			<point x="487" y="1668"/>
			<point x="541" y="1616"/>
			<point x="541" y="1516" type="curve" smooth="yes"/>
			<point x="541" y="1444"/>
			<point x="508" y="1331"/>
			<point x="333" y="1159" type="curve" smooth="yes"/>
			<point x="299" y="1126"/>
			<point x="279" y="1102"/>
			<point x="279" y="1071" type="curve" smooth="yes"/>
			<point x="279" y="1031"/>
			<point x="335" y="985"/>
			<point x="377" y="985" type="curve" smooth="yes"/>
			<point x="412" y="985"/>
			<point x="441" y="998"/>
			<point x="492" y="1051" type="curve" smooth="yes"/>
			<point x="677" y="1240"/>
			<point x="741" y="1371"/>
			<point x="741" y="1537" type="curve" smooth="yes"/>
			<point x="741" y="1718"/>
			<point x="610" y="1838"/>
			<point x="426" y="1838" type="curve" smooth="yes"/>
			<point x="219" y="1838"/>
			<point x="68" y="1700"/>
			<point x="68" y="1530" type="curve" smooth="yes"/>
			<point x="68" y="1383"/>
			<point x="176" y="1275"/>
			<point x="333" y="1275" type="curve" smooth="yes"/>
			<point x="441" y="1275"/>
			<point x="536" y="1327"/>
		</contour>
	</outline>
</glyph>
<glyph name="euro" format="2">
	<unicode hex="20AC"/>
	<advance width="1200"/>
	<outline>
		<contour>
			<point x="711" y="-12" type="curve" smooth="yes"/>
			<point x="843" y="-12"/>
			<point x="986" y="35"/>
			<point x="1085" y="126" type="curve" smooth="yes"/>
			<point x="1149" y="184"/>
			<point x="1171" y="219"/>
			<point x="1171" y="258" type="curve" smooth="yes"/>
			<point x="1171" y="317"/>
			<point x="1106" y="370"/>
			<point x="1069" y="370" type="curve" smooth="yes"/>
			<point x="1047" y="370"/>
			<point x="1032" y="365"/>
			<point x="997" y="340" type="curve" smooth="yes"/>
			<point x="913" y="280"/>
			<point x="824" y="238"/>
			<point x="721" y="238" type="curve" smooth="yes"/>
			<point x="544" y="238"/>
			<point x="449" y="343"/>
			<point x="449" y="713" type="curve" smooth="yes"/>
			<point x="449" y="1167"/>
			<point x="622" y="1375"/>
			<point x="809" y="1375" type="curve" smooth="yes"/>
			<point x="879" y="1375"/>
			<point x="922" y="1362"/>
			<point x="995" y="1320" type="curve" smooth="yes"/>
			<point x="1033" y="1298"/>
			<point x="1049" y="1291"/>
			<point x="1072" y="1291" type="curve" smooth="yes"/>
			<point x="1124" y="1291"/>
			<point x="1182" y="1361"/>
			<point x="1182" y="1426" type="curve" smooth="yes"/>
			<point x="1182" y="1458"/>
			<point x="1158" y="1501"/>
			<point x="1092" y="1546" type="curve" smooth="yes"/>
			<point x="1002" y="1606"/>
			<point x="908" y="1625"/>
			<point x="804" y="1625" type="curve" smooth="yes"/>
			<point x="483" y="1625"/>
			<point x="189" y="1288"/>
			<point x="189" y="688" type="curve" smooth="yes"/>
			<point x="189" y="234"/>
			<point x="398" y="-12"/>
		</contour>
		<contour>
			<point x="128" y="872" type="curve" smooth="yes"/>
			<point x="904" y="872" type="line" smooth="yes"/>
			<point x="958" y="872"/>
			<point x="975" y="924"/>
			<point x="975" y="989" type="curve" smooth="yes"/>
			<point x="975" y="1058"/>
			<point x="949" y="1087"/>
			<point x="907" y="1087" type="curve" smooth="yes"/>
			<point x="130" y="1087" type="line" smooth="yes"/>
			<point x="83" y="1087"/>
			<point x="65" y="1031"/>
			<point x="65" y="962" type="curve" smooth="yes"/>
			<point x="65" y="902"/>
			<point x="87" y="872"/>
		</contour>
		<contour>
			<point x="103" y="516" type="curve" smooth="yes"/>
			<point x="859" y="516" type="line" smooth="yes"/>
			<point x="913" y="516"/>
			<point x="930" y="570"/>
			<point x="930" y="638" type="curve" smooth="yes"/>
			<point x="930" y="703"/>
			<point x="904" y="731"/>
			<point x="862" y="731" type="curve" smooth="yes"/>
			<point x="105" y="731" type="line" smooth="yes"/>
			<point x="58" y="731"/>
			<point x="40" y="677"/>
			<point x="40" y="611" type="curve" smooth="yes"/>
			<point x="40" y="548"/>
			<point x="62" y="516"/>
		</contour>
	</outline>
</glyph>
<glyph name="arrowright" format="2">
	<unicode hex="2192"/>
	<advance width="1843"/>
	<outline>
		<contour>
			<point x="222" y="713" type="curve" smooth="yes"/>
			<point x="1359" y="713" type="line"/>
			<point x="1070" y="424" type="line" smooth="yes"/>
			<point x="1045" y="399"/>
			<point x="1039" y="385"/>
			<point x="1039" y="366" type="curve" smooth="yes"/>
			<point x="1039" y="306"/>
			<point x="1116" y="235"/>
			<point x="1166" y="235" type="curve" smooth="yes"/>
			<point x="1192" y="235"/>
			<point x="1205" y="242"/>
			<point x="1255" y="295" type="curve" smooth="yes"/>
			<point x="1596" y="658" type="line" smooth="yes"/>
			<point x="1683" y="751"/>
			<point x="1703" y="783"/>
			<point x="1703" y="828" type="curve" smooth="yes"/>
			<point x="1703" y="873"/>
			<point x="1683" y="905"/>
			<point x="1596" y="998" type="curve" smooth="yes"/>
			<point x="1255" y="1361" type="line" smooth="yes"/>
			<point x="1205" y="1414"/>
			<point x="1192" y="1421"/>
			<point x="1166" y="1421" type="curve" smooth="yes"/>
			<point x="1116" y="1421"/>
			<point x="1039" y="1350"/>
			<point x="1039" y="1290" type="curve" smooth="yes"/>
			<point x="1039" y="1267"/>
			<point x="1044" y="1255"/>
			<point x="1099" y="1201" type="curve" smooth="yes"/>
			<point x="1359" y="943" type="line"/>
			<point x="228" y="943" type="line" smooth="yes"/>
			<point x="178" y="943"/>
			<point x="140" y="908"/>
			<point x="140" y="828" type="curve" smooth="yes"/>
			<point x="140" y="748"/>
			<point x="172" y="713"/>
		</contour>
	</outline>
</glyph>
<glyph name="minus" format="2">
	<unicode hex="2212"/>
	<advance width="1200"/>
	<outline>
		<contour>
			<point x="208" y="715" type="curve" smooth="yes"/>
			<point x="994" y="715" type="line" smooth="yes"/>
			<point x="1048" y="715"/>
			<point x="1065" y="769"/>
			<point x="1065" y="837" type="curve" smooth="yes"/>
			<point x="1065" y="906"/>
			<point x="1039" y="935"/>
			<point x="997" y="935" type="curve" smooth="yes"/>
			<point x="210" y="935" type="line" smooth="yes"/>
			<point x="163" y="935"/>
			<point x="145" y="879"/>
			<point x="145" y="810" type="curve" smooth="yes"/>
			<point x="145" y="747"/>
			<point x="167" y="715"/>
		</contour>
	</outline>
</glyph>
<glyph name="dotmath" format="2">
	<unicode hex="22C5"/>
	<advance width="1200"/>
	<outline>
		<contour>
			<point x="616" y="562" type="curve" smooth="yes"/>
			<point x="735" y="562"/>
			<point x="841" y="660"/>
			<point x="841" y="791" type="curve" smooth="yes"/>
			<point x="841" y="917"/>
			<point x="766" y="999"/>
			<point x="648" y="999" type="curve" smooth="yes"/>
			<point x="529" y="999"/>
			<point x="424" y="901"/>
			<point x="424" y="768" type="curve" smooth="yes"/>
			<point x="424" y="644"/>
			<point x="498" y="562"/>
		</contour>
	</outline>
</glyph>
<glyph name="J.ss06" format="2">
	<advance width="983"/>
	<outline>
		<contour>
			<point x="413" y="-22" type="curve" smooth="yes"/>
			<point x="664" y="-22"/>
			<point x="820" y="105"/>
			<point x="845" y="475" type="curve" smooth="yes"/>
			<point x="911" y="1440" type="line" smooth="yes"/>
			<point x="912" y="1453"/>
			<point x="913" y="1471"/>
			<point x="914" y="1498" type="curve" smooth="yes"/>
			<point x="917" y="1581"/>
			<point x="889" y="1600"/>
			<point x="791" y="1600" type="curve" smooth="yes"/>
			<point x="694" y="1600"/>
			<point x="670" y="1579"/>
			<point x="663" y="1469" type="curve" smooth="yes"/>
			<point x="599" y="520" type="line" smooth="yes"/>
			<point x="582" y="273"/>
			<point x="533" y="218"/>
			<point x="400" y="218" type="curve" smooth="yes"/>
			<point x="335" y="218"/>
			<point x="258" y="239"/>
			<point x="192" y="267" type="curve" smooth="yes"/>
			<point x="159" y="281"/>
			<point x="141" y="288"/>
			<point x="123" y="287" type="curve" smooth="yes"/>
			<point x="73" y="288"/>
			<point x="20" y="209"/>
			<point x="20" y="145" type="curve" smooth="yes"/>
			<point x="20" y="112"/>
			<point x="35" y="89"/>
			<point x="64" y="70" type="curve" smooth="yes"/>
			<point x="141" y="21"/>
			<point x="283" y="-22"/>
		</contour>
	</outline>
	<anchor name="bottom" x="492" y="0"/>
	<anchor name="top" x="791" y="1600"/>
	<guideline x="243" y="1360" angle="0"/>
</glyph>
<glyph name=".notdef" format="2">
	<advance width="1434"/>
	<outline>
		<contour>
			<point x="100" y="-195" type="line"/>
			<point x="1334" y="-195" type="line"/>
			<point x="1334" y="1805" type="line"/>
			<point x="100" y="1805" type="line"/>
		</contour>
		<contour>
			<point x="673" y="399" type="curve" smooth="yes"/>
			<point x="505" y="399"/>
			<point x="396" y="508"/>
			<point x="396" y="675" type="curve" smooth="yes"/>
			<point x="396" y="808"/>
			<point x="470" y="926"/>
			<point x="665" y="1059" type="curve" smooth="yes"/>
			<point x="881" y="1206"/>
			<point x="913" y="1245"/>
			<point x="913" y="1315" type="curve" smooth="yes"/>
			<point x="913" y="1372"/>
			<point x="865" y="1411"/>
			<point x="786" y="1411" type="curve" smooth="yes"/>
			<point x="701" y="1411"/>
			<point x="623" y="1387"/>
			<point x="510" y="1327" type="curve" smooth="yes"/>
			<point x="478" y="1310"/>
			<point x="466" y="1303"/>
			<point x="443" y="1303" type="curve" smooth="yes"/>
			<point x="406" y="1303"/>
			<point x="352" y="1362"/>
			<point x="352" y="1410" type="curve" smooth="yes"/>
			<point x="352" y="1445"/>
			<point x="376" y="1478"/>
			<point x="452" y="1523" type="curve" smooth="yes"/>
			<point x="564" y="1591"/>
			<point x="672" y="1621"/>
			<point x="802" y="1621" type="curve" smooth="yes"/>
			<point x="998" y="1621"/>
			<point x="1143" y="1508"/>
			<point x="1143" y="1328" type="curve" smooth="yes"/>
			<point x="1143" y="1180"/>
			<point x="1088" y="1086"/>
			<point x="860" y="928" type="curve" smooth="yes"/>
			<point x="639" y="776"/>
			<point x="606" y="734"/>
			<point x="606" y="663" type="curve" smooth="yes"/>
			<point x="606" y="613"/>
			<point x="640" y="583"/>
			<point x="696" y="583" type="curve" smooth="yes"/>
			<point x="743" y="583"/>
			<point x="790" y="606"/>
			<point x="826" y="632" type="curve" smooth="yes"/>
			<point x="848" y="648"/>
			<point x="858" y="651"/>
			<point x="873" y="651" type="curve" smooth="yes"/>
			<point x="921" y="651"/>
			<point x="962" y="602"/>
			<point x="962" y="563" type="curve" smooth="yes"/>
			<point x="962" y="551"/>
			<point x="958" y="534"/>
			<point x="934" y="505" type="curve" smooth="yes"/>
			<point x="880" y="442"/>
			<point x="781" y="399"/>
		</contour>
		<contour>
			<point x="623" y="-12" type="curve" smooth="yes"/>
			<point x="552" y="-12"/>
			<point x="495" y="42"/>
			<point x="495" y="130" type="curve" smooth="yes"/>
			<point x="495" y="218"/>
			<point x="564" y="286"/>
			<point x="640" y="286" type="curve" smooth="yes"/>
			<point x="721" y="286"/>
			<point x="778" y="227"/>
			<point x="778" y="151" type="curve" smooth="yes"/>
			<point x="778" y="63"/>
			<point x="702" y="-12"/>
		</contour>
	</outline>
</glyph>
<glyph name="_part.equal" format="2">
	<advance width="1200"/>
	<outline>
		<contour>
			<point x="210" y="-2" type="curve" smooth="yes"/>
			<point x="890" y="-2" type="line" smooth="yes"/>
			<point x="936" y="-2"/>
			<point x="973" y="35"/>
			<point x="973" y="123" type="curve" smooth="yes"/>
			<point x="973" y="193"/>
			<point x="943" y="228"/>
			<point x="903" y="228" type="curve" smooth="yes"/>
			<point x="223" y="228" type="line" smooth="yes"/>
			<point x="176" y="228"/>
			<point x="140" y="191"/>
			<point x="140" y="97" type="curve" smooth="yes"/>
			<point x="140" y="31"/>
			<point x="171" y="-2"/>
		</contour>
	</outline>
</glyph>
<glyph name="brevecomb.case" format="2">
	<outline>
		<contour>
			<point x="313" y="1016" type="curve" smooth="yes"/>
			<point x="444" y="1016"/>
			<point x="559" y="1081"/>
			<point x="632" y="1214" type="curve" smooth="yes"/>
			<point x="654" y="1254"/>
			<point x="659" y="1280"/>
			<point x="659" y="1293" type="curve" smooth="yes"/>
			<point x="659" y="1347"/>
			<point x="596" y="1373"/>
			<point x="558" y="1374" type="curve" smooth="yes"/>
			<point x="528" y="1373"/>
			<point x="517" y="1361"/>
			<point x="478" y="1305" type="curve" smooth="yes"/>
			<point x="431" y="1236"/>
			<point x="384" y="1213"/>
			<point x="322" y="1213" type="curve" smooth="yes"/>
			<point x="270" y="1213"/>
			<point x="232" y="1233"/>
			<point x="211" y="1307" type="curve" smooth="yes"/>
			<point x="199" y="1349"/>
			<point x="184" y="1366"/>
			<point x="142" y="1366" type="curve" smooth="yes"/>
			<point x="92" y="1366"/>
			<point x="50" y="1340"/>
			<point x="50" y="1291" type="curve" smooth="yes"/>
			<point x="50" y="1118"/>
			<point x="162" y="1016"/>
		</contour>
	</outline>
	<anchor name="_top" x="297" y="910"/>
	<anchor name="top" x="348" y="1360"/>
</glyph>
<glyph name="caroncomb.locl" format="2">
	<outline>
		<contour>
			<point x="121" y="1045" type="curve" smooth="yes"/>
			<point x="163" y="1045"/>
			<point x="200" y="1059"/>
			<point x="227" y="1143" type="curve" smooth="yes"/>
			<point x="258" y="1239"/>
			<point x="276" y="1334"/>
			<point x="276" y="1377" type="curve" smooth="yes"/>
			<point x="276" y="1435"/>
			<point x="236" y="1466"/>
			<point x="163" y="1466" type="curve" smooth="yes"/>
			<point x="103" y="1466"/>
			<point x="86" y="1444"/>
			<point x="79" y="1383" type="curve" smooth="yes"/>
			<point x="53" y="1171" type="line" smooth="yes"/>
			<point x="51" y="1151"/>
			<point x="50" y="1137"/>
			<point x="50" y="1113" type="curve" smooth="yes"/>
			<point x="50" y="1064"/>
			<point x="72" y="1045"/>
		</contour>
	</outline>
	<anchor name="_topright" x="-4" y="1418"/>
</glyph>
<glyph name="dieresiscomb.case" format="2">
	<outline>
		<contour>
			<point x="180" y="1155" type="curve" smooth="yes"/>
			<point x="271" y="1155"/>
			<point x="339" y="1223"/>
			<point x="339" y="1316" type="curve" smooth="yes"/>
			<point x="339" y="1384"/>
			<point x="281" y="1442"/>
			<point x="211" y="1442" type="curve" smooth="yes"/>
			<point x="118" y="1442"/>
			<point x="50" y="1375"/>
			<point x="50" y="1283" type="curve" smooth="yes"/>
			<point x="50" y="1213"/>
			<point x="108" y="1155"/>
		</contour>
		<contour>
			<point x="605" y="1155" type="curve" smooth="yes"/>
			<point x="696" y="1155"/>
			<point x="764" y="1223"/>
			<point x="764" y="1316" type="curve" smooth="yes"/>
			<point x="764" y="1384"/>
			<point x="706" y="1442"/>
			<point x="636" y="1442" type="curve" smooth="yes"/>
			<point x="543" y="1442"/>
			<point x="475" y="1375"/>
			<point x="475" y="1283" type="curve" smooth="yes"/>
			<point x="475" y="1213"/>
			<point x="533" y="1155"/>
		</contour>
	</outline>
	<anchor name="_top" x="387" y="985"/>
	<anchor name="top" x="416" y="1441"/>
</glyph>
<glyph name="f.ss01" format="2">
	<advance width="720"/>
	<outline>
		<contour>
			<point x="400" y="66" type="curve" smooth="yes"/>
			<point x="468" y="1017" type="line" smooth="yes"/>
			<point x="479" y="1172"/>
			<point x="529" y="1215"/>
			<point x="600" y="1215" type="curve" smooth="yes"/>
			<point x="642" y="1215"/>
			<point x="684" y="1196"/>
			<point x="724" y="1173" type="curve" smooth="yes"/>
			<point x="748" y="1159"/>
			<point x="760" y="1153"/>
			<point x="783" y="1153" type="curve" smooth="yes"/>
			<point x="827" y="1153"/>
			<point x="873" y="1211"/>
			<point x="873" y="1261" type="curve" smooth="yes"/>
			<point x="873" y="1329"/>
			<point x="749" y="1425"/>
			<point x="589" y="1425" type="curve" smooth="yes"/>
			<point x="392" y="1425"/>
			<point x="246" y="1284"/>
			<point x="229" y="1050" type="curve" smooth="yes"/>
			<point x="163" y="123" type="line" smooth="yes"/>
			<point x="161" y="89"/>
			<point x="160" y="77"/>
			<point x="160" y="69" type="curve" smooth="yes"/>
			<point x="160" y="13"/>
			<point x="188" y="-10"/>
			<point x="275" y="-10" type="curve" smooth="yes"/>
			<point x="358" y="-10"/>
			<point x="396" y="11"/>
		</contour>
		<contour>
			<point x="99" y="785" type="curve" smooth="yes"/>
			<point x="658" y="785" type="line" smooth="yes"/>
			<point x="702" y="785"/>
			<point x="734" y="818"/>
			<point x="734" y="906" type="curve" smooth="yes"/>
			<point x="734" y="953"/>
			<point x="715" y="975"/>
			<point x="678" y="975" type="curve" smooth="yes"/>
			<point x="119" y="975" type="line" smooth="yes"/>
			<point x="73" y="975"/>
			<point x="40" y="944"/>
			<point x="40" y="861" type="curve" smooth="yes"/>
			<point x="40" y="809"/>
			<point x="61" y="785"/>
		</contour>
	</outline>
	<guideline x="105" y="316" angle="86.1904"/>
</glyph>
<glyph name="gravecomb.case" format="2">
	<outline>
		<contour>
			<point x="478" y="1020" type="curve" smooth="yes"/>
			<point x="530" y="1020"/>
			<point x="571" y="1062"/>
			<point x="571" y="1114" type="curve" smooth="yes"/>
			<point x="571" y="1139"/>
			<point x="563" y="1158"/>
			<point x="520" y="1190" type="curve" smooth="yes"/>
			<point x="471" y="1228"/>
			<point x="386" y="1298"/>
			<point x="283" y="1394" type="curve" smooth="yes"/>
			<point x="230" y="1444"/>
			<point x="205" y="1453"/>
			<point x="180" y="1453" type="curve" smooth="yes"/>
			<point x="113" y="1453"/>
			<point x="55" y="1387"/>
			<point x="55" y="1321" type="curve" smooth="yes"/>
			<point x="55" y="1265"/>
			<point x="101" y="1211"/>
			<point x="250" y="1117" type="curve" smooth="yes"/>
			<point x="384" y="1032"/>
			<point x="441" y="1020"/>
		</contour>
	</outline>
	<anchor name="_top" x="372" y="910"/>
	<anchor name="top" x="320" y="1453"/>
</glyph>
<glyph name="macroncomb.case" format="2">
	<outline>
		<contour>
			<point x="368" y="1068" type="curve" smooth="yes"/>
			<point x="510" y="1068"/>
			<point x="612" y="1075"/>
			<point x="652" y="1088" type="curve" smooth="yes"/>
			<point x="700" y="1102"/>
			<point x="718" y="1141"/>
			<point x="718" y="1218" type="curve" smooth="yes"/>
			<point x="718" y="1252"/>
			<point x="702" y="1298"/>
			<point x="658" y="1298" type="curve" smooth="yes"/>
			<point x="628" y="1298"/>
			<point x="497" y="1290"/>
			<point x="392" y="1290" type="curve" smooth="yes"/>
			<point x="293" y="1290"/>
			<point x="145" y="1296"/>
			<point x="122" y="1296" type="curve" smooth="yes"/>
			<point x="70" y="1296"/>
			<point x="50" y="1255"/>
			<point x="50" y="1198" type="curve" smooth="yes"/>
			<point x="50" y="1127"/>
			<point x="71" y="1086"/>
			<point x="116" y="1080" type="curve" smooth="yes"/>
			<point x="153" y="1072"/>
			<point x="265" y="1068"/>
		</contour>
	</outline>
	<anchor name="_top" x="363" y="910"/>
	<anchor name="top" x="392" y="1300"/>
</glyph>
<glyph name="manicule_regular" format="2">
	<advance width="5339"/>
	<outline>
		<contour>
			<point x="3142" y="1336" type="curve" smooth="yes"/>
			<point x="2566" y="1227" type="line"/>
			<point x="2500" y="1250"/>
			<point x="2433" y="1266"/>
			<point x="2357" y="1266" type="curve" smooth="yes"/>
			<point x="2235" y="1266"/>
			<point x="2071" y="1225"/>
			<point x="2002" y="1206" type="curve" smooth="yes"/>
			<point x="1934" y="1187"/>
			<point x="1905" y="1182"/>
			<point x="1882" y="1182" type="curve" smooth="yes"/>
			<point x="1848" y="1182"/>
			<point x="1792" y="1194"/>
			<point x="1722" y="1214" type="curve" smooth="yes"/>
			<point x="1656" y="1233"/>
			<point x="1587" y="1250"/>
			<point x="1526" y="1250" type="curve" smooth="yes"/>
			<point x="1438" y="1250"/>
			<point x="1367" y="1237"/>
			<point x="1339" y="1127" type="curve"/>
			<point x="888" y="1132" type="line"/>
			<point x="721" y="1039"/>
			<point x="660" y="1005"/>
			<point x="477" y="1005" type="curve" smooth="yes"/>
			<point x="350" y="1005"/>
			<point x="285" y="1019"/>
			<point x="285" y="1102" type="curve" smooth="yes"/>
			<point x="285" y="1149"/>
			<point x="320" y="1156"/>
			<point x="365" y="1163" type="curve" smooth="yes"/>
			<point x="444" y="1175"/>
			<point x="558" y="1214"/>
			<point x="728" y="1301" type="curve" smooth="yes"/>
			<point x="839" y="1358"/>
			<point x="1625" y="1396"/>
			<point x="1815" y="1404" type="curve" smooth="yes"/>
			<point x="2001" y="1412"/>
			<point x="2045" y="1414"/>
			<point x="2057" y="1415" type="curve" smooth="yes"/>
			<point x="2086" y="1417"/>
			<point x="2147" y="1440"/>
			<point x="2220" y="1469" type="curve" smooth="yes"/>
			<point x="2331" y="1513"/>
			<point x="2472" y="1564"/>
			<point x="2581" y="1570" type="curve" smooth="yes"/>
			<point x="2732" y="1578"/>
			<point x="3003" y="1585"/>
			<point x="3240" y="1585" type="curve" smooth="yes"/>
			<point x="3542" y="1585"/>
			<point x="3848" y="1573"/>
			<point x="3959" y="1526" type="curve" smooth="yes"/>
			<point x="4106" y="1464"/>
			<point x="4418" y="1409"/>
			<point x="4477" y="1406" type="curve"/>
			<point x="4661" y="1429"/>
			<point x="4900" y="1458"/>
			<point x="5072" y="1473" type="curve" smooth="yes"/>
			<point x="5089" y="1474"/>
			<point x="5116" y="1530"/>
			<point x="5116" y="1572" type="curve" smooth="yes"/>
			<point x="5116" y="1604"/>
			<point x="5108" y="1627"/>
			<point x="5072" y="1627" type="curve" smooth="yes"/>
			<point x="4862" y="1627"/>
			<point x="4682" y="1583"/>
			<point x="4475" y="1560" type="curve"/>
			<point x="4406" y="1566"/>
			<point x="4120" y="1617"/>
			<point x="3982" y="1675" type="curve" smooth="yes"/>
			<point x="3861" y="1726"/>
			<point x="3543" y="1739"/>
			<point x="3233" y="1739" type="curve" smooth="yes"/>
			<point x="2985" y="1739"/>
			<point x="2715" y="1731"/>
			<point x="2575" y="1723" type="curve" smooth="yes"/>
			<point x="2451" y="1716"/>
			<point x="2298" y="1662"/>
			<point x="2186" y="1615" type="curve" smooth="yes"/>
			<point x="2124" y="1589"/>
			<point x="2075" y="1571"/>
			<point x="2053" y="1569" type="curve" smooth="yes"/>
			<point x="2004" y="1565"/>
			<point x="1955" y="1562"/>
			<point x="1797" y="1553" type="curve" smooth="yes"/>
			<point x="1566" y="1540"/>
			<point x="764" y="1492"/>
			<point x="703" y="1458" type="curve" smooth="yes"/>
			<point x="585" y="1392"/>
			<point x="480" y="1360"/>
			<point x="351" y="1327" type="curve" smooth="yes"/>
			<point x="206" y="1290"/>
			<point x="150" y="1223"/>
			<point x="150" y="1119" type="curve" smooth="yes"/>
			<point x="150" y="994"/>
			<point x="277" y="893"/>
			<point x="488" y="893" type="curve" smooth="yes"/>
			<point x="603" y="893"/>
			<point x="743" y="926"/>
			<point x="901" y="998" type="curve"/>
			<point x="1333" y="998" type="line"/>
			<point x="1338" y="882"/>
			<point x="1430" y="765"/>
			<point x="1657" y="686" type="curve"/>
			<point x="1601" y="602"/>
			<point x="1587" y="563"/>
			<point x="1587" y="490" type="curve" smooth="yes"/>
			<point x="1587" y="340"/>
			<point x="1636" y="169"/>
			<point x="1685" y="46" type="curve"/>
			<point x="1684" y="37"/>
			<point x="1683" y="27"/>
			<point x="1683" y="6" type="curve" smooth="yes"/>
			<point x="1683" y="-157"/>
			<point x="1776" y="-340"/>
			<point x="1900" y="-441" type="curve" smooth="yes"/>
			<point x="1990" y="-515"/>
			<point x="2068" y="-545"/>
			<point x="2125" y="-548" type="curve"/>
			<point x="2152" y="-617"/>
			<point x="2232" y="-716"/>
			<point x="2337" y="-716" type="curve" smooth="yes"/>
			<point x="2431" y="-716"/>
			<point x="2542" y="-652"/>
			<point x="2542" y="-513" type="curve" smooth="yes"/>
			<point x="2542" y="-464"/>
			<point x="2539" y="-444"/>
			<point x="2523" y="-394" type="curve"/>
			<point x="2543" y="-396"/>
			<point x="2554" y="-396"/>
			<point x="2578" y="-396" type="curve" smooth="yes"/>
			<point x="2656" y="-396"/>
			<point x="2709" y="-373"/>
			<point x="2796" y="-326" type="curve"/>
			<point x="2851" y="-335"/>
			<point x="2879" y="-375"/>
			<point x="2931" y="-375" type="curve" smooth="yes"/>
			<point x="3022" y="-375"/>
			<point x="3079" y="-309"/>
			<point x="3079" y="-210" type="curve" smooth="yes"/>
			<point x="3079" y="-89"/>
			<point x="2965" y="22"/>
			<point x="2806" y="67" type="curve"/>
			<point x="2795" y="99"/>
			<point x="2778" y="147"/>
			<point x="2753" y="189" type="curve"/>
			<point x="2810" y="258"/>
			<point x="2863" y="365"/>
			<point x="2887" y="452" type="curve"/>
			<point x="2887" y="452"/>
			<point x="3174" y="460"/>
			<point x="3298" y="476" type="curve"/>
			<point x="3450" y="387"/>
			<point x="3679" y="289"/>
			<point x="3989" y="289" type="curve" smooth="yes"/>
			<point x="4199" y="289"/>
			<point x="4326" y="318"/>
			<point x="4601" y="480" type="curve"/>
			<point x="5138" y="407"/>
			<point x="5141" y="407"/>
			<point x="5144" y="407" type="curve" smooth="yes"/>
			<point x="5173" y="407"/>
			<point x="5185" y="430"/>
			<point x="5189" y="476" type="curve" smooth="yes"/>
			<point x="5192" y="515"/>
			<point x="5164" y="540"/>
			<point x="5149" y="542" type="curve" smooth="yes"/>
			<point x="4588" y="619" type="line"/>
			<point x="4324" y="456"/>
			<point x="4194" y="426"/>
			<point x="3989" y="426" type="curve" smooth="yes"/>
			<point x="3692" y="426"/>
			<point x="3485" y="499"/>
			<point x="3202" y="685" type="curve" smooth="yes"/>
			<point x="3138" y="727"/>
			<point x="3109" y="747"/>
			<point x="3109" y="747" type="curve" smooth="yes"/>
			<point x="3077" y="740"/>
			<point x="2982" y="739"/>
			<point x="2931" y="739" type="curve" smooth="yes"/>
			<point x="2824" y="739"/>
			<point x="2422" y="826"/>
			<point x="2422" y="826" type="curve" smooth="yes"/>
			<point x="2322" y="789"/>
			<point x="2147" y="760"/>
			<point x="2025" y="760" type="curve" smooth="yes"/>
			<point x="1717" y="760"/>
			<point x="1480" y="859"/>
			<point x="1480" y="1023" type="curve" smooth="yes"/>
			<point x="1480" y="1095"/>
			<point x="1517" y="1115"/>
			<point x="1561" y="1115" type="curve" smooth="yes"/>
			<point x="1648" y="1115"/>
			<point x="1774" y="1042"/>
			<point x="1874" y="1042" type="curve" smooth="yes"/>
			<point x="1930" y="1044"/>
			<point x="1969" y="1053"/>
			<point x="2024" y="1075" type="curve" smooth="yes"/>
			<point x="2095" y="1103"/>
			<point x="2247" y="1131"/>
			<point x="2357" y="1131" type="curve" smooth="yes"/>
			<point x="2430" y="1131"/>
			<point x="2500" y="1114"/>
			<point x="2566" y="1089" type="curve"/>
			<point x="3185" y="1211" type="line" smooth="yes"/>
			<point x="3200" y="1214"/>
			<point x="3228" y="1229"/>
			<point x="3228" y="1282" type="curve" smooth="yes"/>
			<point x="3228" y="1328"/>
			<point x="3202" y="1339"/>
			<point x="3173" y="1339" type="curve" smooth="yes"/>
			<point x="3163" y="1339"/>
			<point x="3152" y="1338"/>
		</contour>
		<contour>
			<point x="1997" y="-89" type="curve" smooth="yes"/>
			<point x="2252" y="-109"/>
			<point x="2443" y="-309"/>
			<point x="2443" y="-480" type="curve" smooth="yes"/>
			<point x="2445" y="-515"/>
			<point x="2429" y="-587"/>
			<point x="2370" y="-587" type="curve" smooth="yes"/>
			<point x="2266" y="-587"/>
			<point x="2225" y="-513"/>
			<point x="2218" y="-461" type="curve" smooth="yes"/>
			<point x="2216" y="-448"/>
			<point x="2102" y="-452"/>
			<point x="2022" y="-395" type="curve" smooth="yes"/>
			<point x="1864" y="-283"/>
			<point x="1829" y="-79"/>
			<point x="1829" y="20" type="curve" smooth="yes"/>
			<point x="1829" y="33"/>
			<point x="1829" y="45"/>
			<point x="1831" y="54" type="curve"/>
			<point x="1779" y="174"/>
			<point x="1730" y="343"/>
			<point x="1730" y="489" type="curve" smooth="yes"/>
			<point x="1730" y="550"/>
			<point x="1744" y="594"/>
			<point x="1794" y="668" type="curve"/>
			<point x="1888" y="640"/>
			<point x="1937" y="626"/>
			<point x="2032" y="626" type="curve" smooth="yes"/>
			<point x="2114" y="626"/>
			<point x="2139" y="631"/>
			<point x="2220" y="651" type="curve"/>
			<point x="2172" y="499"/>
			<point x="2104" y="436"/>
			<point x="2043" y="380" type="curve"/>
			<point x="2023" y="390"/>
			<point x="1968" y="403"/>
			<point x="1943" y="403" type="curve" smooth="yes"/>
			<point x="1925" y="403"/>
			<point x="1914" y="357"/>
			<point x="1918" y="337" type="curve" smooth="yes"/>
			<point x="1922" y="318"/>
			<point x="1961" y="302"/>
			<point x="1981" y="295" type="curve" smooth="yes"/>
			<point x="2049" y="272" type="line"/>
			<point x="2103" y="145"/>
			<point x="2105" y="85"/>
			<point x="2105" y="17" type="curve" smooth="yes"/>
			<point x="2105" y="-4" type="line"/>
			<point x="2085" y="4"/>
			<point x="2069" y="7"/>
			<point x="2048" y="7" type="curve" smooth="yes"/>
			<point x="2042" y="7"/>
			<point x="2035" y="7"/>
			<point x="2027" y="6" type="curve" smooth="yes"/>
			<point x="1993" y="3"/>
			<point x="1988" y="-14"/>
			<point x="1986" y="-30" type="curve" smooth="yes"/>
			<point x="1982" y="-60"/>
			<point x="1981" y="-88"/>
		</contour>
		<contour>
			<point x="2151" y="334" type="curve" smooth="yes"/>
			<point x="2237" y="406"/>
			<point x="2339" y="582"/>
			<point x="2372" y="674" type="curve"/>
			<point x="2395" y="681"/>
			<point x="2423" y="686"/>
			<point x="2445" y="694" type="curve"/>
			<point x="2476" y="626"/>
			<point x="2495" y="604"/>
			<point x="2528" y="575" type="curve"/>
			<point x="2532" y="547"/>
			<point x="2528" y="509"/>
			<point x="2528" y="478" type="curve" smooth="yes"/>
			<point x="2528" y="394"/>
			<point x="2522" y="340"/>
			<point x="2487" y="273" type="curve"/>
			<point x="2467" y="281"/>
			<point x="2452" y="284"/>
			<point x="2436" y="284" type="curve" smooth="yes"/>
			<point x="2423" y="284"/>
			<point x="2411" y="282"/>
			<point x="2397" y="279" type="curve" smooth="yes"/>
			<point x="2363" y="271"/>
			<point x="2351" y="258"/>
			<point x="2351" y="226" type="curve" smooth="yes"/>
			<point x="2351" y="210"/>
			<point x="2365" y="196"/>
			<point x="2381" y="196" type="curve" smooth="yes"/>
			<point x="2451" y="196"/>
			<point x="2510" y="191"/>
			<point x="2540" y="85" type="curve"/>
			<point x="2479" y="78"/>
			<point x="2435" y="67"/>
			<point x="2372" y="39" type="curve" smooth="yes"/>
			<point x="2361" y="35"/>
			<point x="2346" y="24"/>
			<point x="2348" y="-4" type="curve" smooth="yes"/>
			<point x="2350" y="-35"/>
			<point x="2369" y="-56"/>
			<point x="2394" y="-56" type="curve" smooth="yes"/>
			<point x="2400" y="-56"/>
			<point x="2406" y="-54"/>
			<point x="2412" y="-52" type="curve" smooth="yes"/>
			<point x="2491" y="-21"/>
			<point x="2553" y="-15"/>
			<point x="2658" y="-15" type="curve" smooth="yes"/>
			<point x="2840" y="-15"/>
			<point x="2997" y="-123"/>
			<point x="2997" y="-228" type="curve" smooth="yes"/>
			<point x="2997" y="-266"/>
			<point x="2973" y="-281"/>
			<point x="2943" y="-281" type="curve" smooth="yes"/>
			<point x="2920" y="-281"/>
			<point x="2893" y="-271"/>
			<point x="2871" y="-256" type="curve" smooth="yes"/>
			<point x="2775" y="-188"/>
			<point x="2711" y="-179"/>
			<point x="2647" y="-179" type="curve" smooth="yes"/>
			<point x="2605" y="-179"/>
			<point x="2575" y="-195"/>
			<point x="2575" y="-218" type="curve" smooth="yes"/>
			<point x="2575" y="-242"/>
			<point x="2586" y="-267"/>
			<point x="2601" y="-268" type="curve" smooth="yes"/>
			<point x="2660" y="-272"/>
			<point x="2664" y="-266"/>
			<point x="2700" y="-276" type="curve"/>
			<point x="2645" y="-305"/>
			<point x="2615" y="-310"/>
			<point x="2573" y="-310" type="curve" smooth="yes"/>
			<point x="2536" y="-310"/>
			<point x="2530" y="-310"/>
			<point x="2491" y="-307" type="curve"/>
			<point x="2438" y="-195"/>
			<point x="2342" y="-88"/>
			<point x="2214" y="-38" type="curve"/>
			<point x="2215" y="-26"/>
			<point x="2216" y="-13"/>
			<point x="2216" y="2" type="curve" smooth="yes"/>
			<point x="2216" y="77"/>
			<point x="2199" y="199"/>
			<point x="2143" y="330" type="curve"/>
			<point x="2146" y="331"/>
			<point x="2149" y="332"/>
		</contour>
		<contour>
			<point x="2651" y="479" type="curve"/>
			<point x="2650" y="512" type="line"/>
			<point x="2699" y="480"/>
			<point x="2717" y="470"/>
			<point x="2781" y="459" type="curve"/>
			<point x="2758" y="374"/>
			<point x="2726" y="312"/>
			<point x="2638" y="206" type="curve"/>
			<point x="2697" y="151"/>
			<point x="2698" y="82"/>
			<point x="2698" y="82" type="curve" smooth="yes"/>
			<point x="2687" y="87"/>
			<point x="2677" y="89"/>
			<point x="2666" y="89" type="curve" smooth="yes"/>
			<point x="2662" y="89"/>
			<point x="2657" y="89"/>
			<point x="2652" y="88" type="curve"/>
			<point x="2638" y="144"/>
			<point x="2616" y="181"/>
			<point x="2590" y="206" type="curve"/>
			<point x="2630" y="275"/>
			<point x="2651" y="389"/>
		</contour>
		<contour>
			<point x="2572" y="685" type="curve"/>
			<point x="2639" y="661"/>
			<point x="2784" y="612"/>
			<point x="2925" y="612" type="curve" smooth="yes"/>
			<point x="2966" y="612"/>
			<point x="3002" y="614"/>
			<point x="3023" y="617" type="curve" smooth="yes"/>
			<point x="3029" y="618"/>
			<point x="3037" y="619"/>
			<point x="3044" y="620" type="curve" smooth="yes"/>
			<point x="3053" y="622"/>
			<point x="3061" y="623"/>
			<point x="3068" y="623" type="curve" smooth="yes"/>
			<point x="3073" y="623"/>
			<point x="3076" y="622"/>
			<point x="3078" y="621" type="curve" smooth="yes"/>
			<point x="3089" y="611"/>
			<point x="3134" y="573"/>
			<point x="3152" y="566" type="curve"/>
			<point x="3100" y="559"/>
			<point x="2970" y="542"/>
			<point x="2866" y="542" type="curve" smooth="yes"/>
			<point x="2815" y="542"/>
			<point x="2770" y="546"/>
			<point x="2744" y="557" type="curve" smooth="yes"/>
			<point x="2713" y="570"/>
			<point x="2579" y="646"/>
		</contour>
	</outline>
</glyph>
<glyph name="one.osf" format="2">
	<advance width="844"/>
	<outline>
		<contour>
			<point x="487" y="-12" type="curve" smooth="yes"/>
			<point x="585" y="-12"/>
			<point x="631" y="12"/>
			<point x="636" y="82" type="curve" smooth="yes"/>
			<point x="692" y="949" type="line" smooth="yes"/>
			<point x="693" y="965"/>
			<point x="694" y="983"/>
			<point x="694" y="996" type="curve" smooth="yes"/>
			<point x="695" y="1054"/>
			<point x="655" y="1099"/>
			<point x="592" y="1099" type="curve" smooth="yes"/>
			<point x="564" y="1099"/>
			<point x="548" y="1092"/>
			<point x="500" y="1057" type="curve" smooth="yes"/>
			<point x="425" y="1002"/>
			<point x="255" y="881"/>
			<point x="137" y="806" type="curve" smooth="yes"/>
			<point x="73" y="765"/>
			<point x="60" y="746"/>
			<point x="60" y="715" type="curve" smooth="yes"/>
			<point x="60" y="655"/>
			<point x="129" y="581"/>
			<point x="169" y="581" type="curve" smooth="yes"/>
			<point x="193" y="581"/>
			<point x="204" y="586"/>
			<point x="239" y="605" type="curve" smooth="yes"/>
			<point x="331" y="658"/>
			<point x="422" y="720"/>
			<point x="486" y="766" type="curve"/>
			<point x="443" y="782" type="line"/>
			<point x="389" y="150" type="line" smooth="yes"/>
			<point x="387" y="124"/>
			<point x="385" y="100"/>
			<point x="385" y="76" type="curve" smooth="yes"/>
			<point x="385" y="14"/>
			<point x="423" y="-12"/>
		</contour>
	</outline>
</glyph>
<glyph name="q.ss02" format="2">
	<advance width="1097"/>
	<outline>
		<contour>
			<point x="831" y="691" type="curve"/>
			<point x="736" y="736" type="line"/>
			<point x="654" y="407"/>
			<point x="522" y="198"/>
			<point x="420" y="198" type="curve" smooth="yes"/>
			<point x="362" y="198"/>
			<point x="325" y="246"/>
			<point x="325" y="398" type="curve" smooth="yes"/>
			<point x="325" y="625"/>
			<point x="433" y="790"/>
			<point x="582" y="790" type="curve" smooth="yes"/>
			<point x="637" y="790"/>
			<point x="703" y="768"/>
			<point x="753" y="733" type="curve"/>
			<point x="796" y="770" type="line"/>
			<point x="720" y="929"/>
			<point x="644" y="1000"/>
			<point x="510" y="1000" type="curve" smooth="yes"/>
			<point x="284" y="1000"/>
			<point x="80" y="744"/>
			<point x="80" y="368" type="curve" smooth="yes"/>
			<point x="80" y="121"/>
			<point x="188" y="-12"/>
			<point x="335" y="-12" type="curve" smooth="yes"/>
			<point x="503" y="-12"/>
			<point x="672" y="165"/>
		</contour>
		<contour>
			<point x="746" y="890" type="curve" smooth="yes"/>
			<point x="664" y="-250" type="line" smooth="yes"/>
			<point x="660" y="-307"/>
			<point x="658" y="-336"/>
			<point x="658" y="-361" type="curve" smooth="yes"/>
			<point x="658" y="-428"/>
			<point x="690" y="-470"/>
			<point x="747" y="-470" type="curve" smooth="yes"/>
			<point x="776" y="-470"/>
			<point x="811" y="-464"/>
			<point x="876" y="-450" type="curve" smooth="yes"/>
			<point x="934" y="-438"/>
			<point x="955" y="-434"/>
			<point x="1027" y="-423" type="curve" smooth="yes"/>
			<point x="1098" y="-412"/>
			<point x="1120" y="-383"/>
			<point x="1120" y="-304" type="curve" smooth="yes"/>
			<point x="1120" y="-249"/>
			<point x="1089" y="-215"/>
			<point x="1036" y="-215" type="curve" smooth="yes"/>
			<point x="1013" y="-215"/>
			<point x="974" y="-221"/>
			<point x="907" y="-234" type="curve"/>
			<point x="986" y="844" type="line" smooth="yes"/>
			<point x="989" y="880"/>
			<point x="990" y="892"/>
			<point x="990" y="927" type="curve" smooth="yes"/>
			<point x="990" y="982"/>
			<point x="962" y="1000"/>
			<point x="875" y="1000" type="curve" smooth="yes"/>
			<point x="779" y="1000"/>
			<point x="753" y="987"/>
		</contour>
	</outline>
</glyph>
<glyph name="seven.salt" format="2">
	<advance width="1144"/>
	<outline>
		<contour>
			<point x="381" y="-12" type="curve" smooth="yes"/>
			<point x="435" y="-12"/>
			<point x="456" y="9"/>
			<point x="475" y="75" type="curve" smooth="yes"/>
			<point x="618" y="569"/>
			<point x="840" y="990"/>
			<point x="1044" y="1293" type="curve" smooth="yes"/>
			<point x="1118" y="1402"/>
			<point x="1124" y="1436"/>
			<point x="1124" y="1484" type="curve" smooth="yes"/>
			<point x="1124" y="1546"/>
			<point x="1065" y="1600"/>
			<point x="983" y="1600" type="curve" smooth="yes"/>
			<point x="208" y="1600" type="line" smooth="yes"/>
			<point x="137" y="1600"/>
			<point x="100" y="1542"/>
			<point x="100" y="1466" type="curve" smooth="yes"/>
			<point x="100" y="1395"/>
			<point x="131" y="1360"/>
			<point x="190" y="1360" type="curve" smooth="yes"/>
			<point x="904" y="1360" type="line"/>
			<point x="893" y="1381" type="line"/>
			<point x="622" y="1038"/>
			<point x="399" y="651"/>
			<point x="227" y="187" type="curve" smooth="yes"/>
			<point x="212" y="146"/>
			<point x="207" y="121"/>
			<point x="207" y="96" type="curve" smooth="yes"/>
			<point x="207" y="36"/>
			<point x="286" y="-12"/>
		</contour>
	</outline>
</glyph>
<glyph name="zero.osf" format="2">
	<advance width="1183"/>
	<outline>
		<contour>
			<point x="567" y="-25" type="curve" smooth="yes"/>
			<point x="894" y="-25"/>
			<point x="1093" y="242"/>
			<point x="1093" y="563" type="curve" smooth="yes"/>
			<point x="1093" y="899"/>
			<point x="900" y="1105"/>
			<point x="616" y="1105" type="curve" smooth="yes"/>
			<point x="290" y="1105"/>
			<point x="90" y="841"/>
			<point x="90" y="520" type="curve" smooth="yes"/>
			<point x="90" y="183"/>
			<point x="282" y="-25"/>
		</contour>
		<contour>
			<point x="575" y="195" type="curve" smooth="yes"/>
			<point x="426" y="195"/>
			<point x="329" y="328"/>
			<point x="329" y="540" type="curve" smooth="yes"/>
			<point x="329" y="727"/>
			<point x="441" y="885"/>
			<point x="608" y="885" type="curve" smooth="yes"/>
			<point x="763" y="885"/>
			<point x="853" y="756"/>
			<point x="853" y="546" type="curve" smooth="yes"/>
			<point x="853" y="357"/>
			<point x="747" y="195"/>
		</contour>
	</outline>
</glyph>
